<svg width="120" height="32" viewBox="0 0 120 32" fill="none" xmlns="http://www.w3.org/2000/svg">
<g clip-path="url(#clip0_1_3)">
<path d="M47.3097 8.83942C48.8559 8.83942 50.0577 9.22968 50.9152 10.0103C51.7867 10.7766 52.2224 11.8552 52.2224 13.2461C52.2224 14.6369 51.8007 15.7226 50.9573 16.5032C50.1139 17.2695 48.9543 17.6528 47.4784 17.6528H45.4332C45.1662 17.6528 44.9835 17.6173 44.8851 17.5463L44.8429 17.5889C44.8991 17.7308 44.9272 17.9295 44.9272 18.185V23.7412H42.2284V8.83942H47.3097ZM44.8851 11.1811L44.8429 11.2237C44.8991 11.3656 44.9272 11.5643 44.9272 11.8197V14.6724C44.9272 14.9279 44.8991 15.1265 44.8429 15.2685L44.8851 15.311C44.9835 15.2401 45.1662 15.2046 45.4332 15.2046H47.373C48.0336 15.2046 48.5466 15.0272 48.9121 14.6724C49.2776 14.3176 49.4603 13.8421 49.4603 13.2461C49.4603 12.6358 49.2776 12.1533 48.9121 11.7985C48.5466 11.4437 48.0336 11.2663 47.373 11.2663H45.4332C45.1803 11.2663 44.9975 11.2379 44.8851 11.1811Z" fill="#707789"/>
<path d="M56.2635 8.52007V23.7412H53.6912V8.52007H56.2635Z" fill="#707789"/>
<path d="M62.8466 13.5867C64.393 13.5867 65.5105 13.8989 66.1994 14.5234C66.8875 15.1478 67.232 16.1555 67.232 17.5463V23.7412H64.6179C64.6179 23.0741 64.7233 22.4923 64.9342 21.9955L64.8498 21.953C64.1329 23.358 63.0153 24.0605 61.4973 24.0605C60.4571 24.0605 59.6137 23.7483 58.9672 23.1238C58.3346 22.4852 58.0184 21.6479 58.0184 20.6118C58.0184 19.5758 58.3346 18.7526 58.9672 18.1424C59.6137 17.5179 60.4712 17.2057 61.5394 17.2057C63.0294 17.2057 64.1189 17.7734 64.8077 18.9088L64.892 18.8662C64.7796 18.5255 64.7233 18.043 64.7233 17.4186C64.653 16.3684 63.9361 15.8432 62.5726 15.8432C61.8135 15.8432 60.8507 15.9852 59.684 16.269L59.178 14.0763C60.4431 13.7499 61.6659 13.5867 62.8466 13.5867ZM62.5304 18.9939C62.0104 18.9939 61.5886 19.1358 61.2654 19.4197C60.942 19.7035 60.7804 20.0725 60.7804 20.5266C60.7804 20.9808 60.935 21.3498 61.2443 21.6337C61.5675 21.9033 61.9893 22.0381 62.5093 22.0381C63.0435 22.0381 63.4792 21.8962 63.8166 21.6124C64.154 21.3285 64.3227 20.9595 64.3227 20.5054C64.3227 20.0654 64.154 19.7035 63.8166 19.4197C63.4932 19.1358 63.0645 18.9939 62.5304 18.9939Z" fill="#707789"/>
<path d="M78.416 13.906L72.3649 28.0201H69.7297L71.901 23.0387L67.7898 13.906H70.6364L72.5757 18.5894C72.885 19.299 73.0537 20.0157 73.0818 20.7395H73.1661C73.1802 20.1861 73.3067 19.6184 73.5457 19.0365L75.6121 13.906H78.416Z" fill="#707789"/>
<path d="M88.0441 23.8902L84.7342 16.6096C84.3687 15.8006 84.1649 15.0981 84.1227 14.5021H84.0383C84.0102 15.2968 83.8978 16.0135 83.701 16.6522L81.5502 23.7412H78.6831L83.5744 8.62651H84.0173L87.7911 17.3547C87.9879 17.823 88.1144 18.3624 88.1706 18.9726H88.255C88.3252 18.3198 88.4447 17.7804 88.6134 17.3547L92.3879 8.62651H92.8307L97.7431 23.7412H94.8543L92.7252 16.6522C92.5284 16.0135 92.416 15.2968 92.3879 14.5021H92.3035C92.2473 15.1123 92.0435 15.8148 91.692 16.6096L88.3815 23.8902H88.0441Z" fill="#707789"/>
<path d="M103.224 13.5867C104.77 13.5867 105.888 13.8989 106.576 14.5234C107.265 15.1478 107.61 16.1555 107.61 17.5463V23.7412H104.995C104.995 23.0741 105.1 22.4923 105.311 21.9955L105.227 21.953C104.51 23.358 103.392 24.0605 101.874 24.0605C100.835 24.0605 99.9911 23.7483 99.3444 23.1238C98.7118 22.4852 98.3955 21.6479 98.3955 20.6118C98.3955 19.5758 98.7118 18.7526 99.3444 18.1424C99.9911 17.5179 100.849 17.2057 101.916 17.2057C103.406 17.2057 104.496 17.7734 105.185 18.9088L105.269 18.8662C105.157 18.5255 105.1 18.043 105.1 17.4186C105.03 16.3684 104.313 15.8432 102.95 15.8432C102.19 15.8432 101.228 15.9852 100.061 16.269L99.5553 14.0763C100.82 13.7499 102.043 13.5867 103.224 13.5867ZM102.907 18.9939C102.387 18.9939 101.966 19.1358 101.642 19.4197C101.319 19.7035 101.158 20.0725 101.158 20.5266C101.158 20.9808 101.312 21.3498 101.621 21.6337C101.944 21.9033 102.366 22.0381 102.886 22.0381C103.42 22.0381 103.856 21.8962 104.194 21.6124C104.531 21.3285 104.7 20.9595 104.7 20.5054C104.7 20.0654 104.531 19.7035 104.194 19.4197C103.87 19.1358 103.442 18.9939 102.907 18.9939Z" fill="#707789"/>
<path d="M113.907 13.5867C115.594 13.5867 116.788 14.3814 117.491 15.971L117.575 15.9497C117.42 15.4814 117.343 14.8001 117.343 13.906H119.937V23.1025C119.937 26.5796 118.123 28.3182 114.497 28.3182C112.712 28.3182 111.173 27.9208 109.879 27.126L111.039 24.8908C112.121 25.5436 113.239 25.87 114.392 25.87C115.305 25.87 116.036 25.6501 116.584 25.2101C117.132 24.7843 117.406 24.1954 117.406 23.4432V23.1451C117.406 22.6342 117.463 22.1517 117.575 21.6975L117.491 21.6763C116.732 23.1948 115.53 23.9541 113.886 23.9541C112.536 23.9541 111.433 23.4857 110.575 22.549C109.732 21.5982 109.31 20.3564 109.31 18.8236C109.31 17.2624 109.739 15.9994 110.596 15.0343C111.454 14.0692 112.557 13.5867 113.907 13.5867ZM114.603 15.9923C113.815 15.9923 113.183 16.2477 112.705 16.7586C112.241 17.2695 112.009 17.9579 112.009 18.8236C112.009 19.6894 112.241 20.3777 112.705 20.8886C113.183 21.3995 113.815 21.655 114.603 21.655C115.404 21.655 116.064 21.3924 116.584 20.8673C117.104 20.3422 117.364 19.661 117.364 18.8236C117.364 17.9863 117.104 17.305 116.584 16.7799C116.064 16.2548 115.404 15.9923 114.603 15.9923Z" fill="#707789"/>
<path d="M16.8194 0.0656033C25.084 0.589557 31.6263 7.52335 31.6263 16C31.6263 24.8179 24.5465 31.9662 15.8132 31.9662C7.07981 31.9662 0 24.8179 0 16C0 7.52335 6.54236 0.589619 14.8069 0.0656033H16.8194Z" fill="#1DD882"/>
<path d="M31.6246 16C31.6246 15.6587 31.614 15.32 31.5931 14.984L16.8177 0.0656033L15.9466 12.373L5.85513 23.1412L14.5455 31.9157C14.9631 31.9492 15.3854 31.9662 15.8114 31.9662C24.5448 31.9662 31.6246 24.8179 31.6246 16Z" fill="#06B26B"/>
<path d="M16.8183 0.0656079C16.4856 0.0445274 16.15 0.0338001 15.8121 0.0338001C15.4741 0.0338001 15.1386 0.0445274 14.8058 0.0656079V14.7988H16.8182V0.0656079H16.8183Z" fill="#DCE1EB"/>
<path d="M16.8194 0.0656047C16.4891 0.0446489 16.1562 0.033984 15.8207 0.0338593V14.7988H16.8194V0.0656047Z" fill="#BEC3D2"/>
<path d="M26.8572 20.238L26.2335 12.1186C26.0658 9.93471 24.0427 8.39168 21.9164 8.82561L20.4817 9.11839H11.1409L9.7062 8.82561C7.57974 8.39168 5.55686 9.93477 5.38909 12.1186L4.76534 20.238C4.62419 22.0752 5.86238 23.7301 7.65125 24.0952C9.44013 24.4602 11.2176 23.4207 11.7942 21.6724L13.1545 17.5473H18.4679L19.8282 21.6724C20.4048 23.4206 22.1824 24.4602 23.9712 24.0952C25.7601 23.7301 26.9983 22.0752 26.8572 20.238Z" fill="white"/>
<path d="M26.8591 20.238L26.2354 12.1186C26.0676 9.93471 24.0447 8.39168 21.9183 8.82555L20.4836 9.11832H15.8207V17.5472H18.4699L19.8302 21.6723C20.4068 23.4206 22.1844 24.4601 23.9732 24.0951C25.7621 23.7301 27.0003 22.0752 26.8591 20.238Z" fill="#E9EDF5"/>
<path d="M12.4706 15.387V13.203H10.7217V11.4371H8.55853V13.203H6.80959V15.3871H8.55853V17.1529H10.7217V15.387H12.4706Z" fill="#707789"/>
<path d="M22.1987 13.2865C22.7045 13.2865 23.1146 12.8725 23.1146 12.3617C23.1146 11.8511 22.7045 11.4371 22.1987 11.4371C21.693 11.4371 21.2829 11.8511 21.2829 12.3617C21.2829 12.8725 21.693 13.2865 22.1987 13.2865Z" fill="#FFCE00"/>
<path d="M22.1987 16.9246C22.7045 16.9246 23.1146 16.5107 23.1146 16C23.1146 15.4893 22.7045 15.0754 22.1987 15.0754C21.693 15.0754 21.2829 15.4893 21.2829 16C21.2829 16.5107 21.693 16.9246 22.1987 16.9246Z" fill="#1DD882"/>
<path d="M23.9989 15.1055C24.5047 15.1055 24.9147 14.6916 24.9147 14.1808C24.9147 13.6702 24.5047 13.2562 23.9989 13.2562C23.4931 13.2562 23.0831 13.6702 23.0831 14.1808C23.0831 14.6916 23.4931 15.1055 23.9989 15.1055Z" fill="#FF73A5"/>
<path d="M20.3936 15.1055C20.8994 15.1055 21.3095 14.6916 21.3095 14.1808C21.3095 13.6702 20.8994 13.2562 20.3936 13.2562C19.8879 13.2562 19.4778 13.6702 19.4778 14.1808C19.4778 14.6916 19.8879 15.1055 20.3936 15.1055Z" fill="#65B1FC"/>
</g>
<defs>
<clipPath id="clip0_1_3">
<rect width="120" height="32" fill="white"/>
</clipPath>
</defs>
</svg>
