<svg width="109" height="65" viewBox="0 0 109 65" fill="none" xmlns="http://www.w3.org/2000/svg">
<g opacity="0.7" clip-path="url(#clip0_106_58)">
<path d="M108.333 0H0V65H108.333V0Z" fill="black"/>
<path d="M8.08862 53.2505H10.5143V53.9037H9.01963V54.609H10.4305V55.2725H9.01963V56.0688H10.5705V56.7421H8.08862V53.2505ZM93.8315 53.2505H96.4917V53.9481H95.6272V56.7421H94.696V53.9481H93.8315V53.2505ZM85.927 53.2505H87.0894L88.1012 55.344C88.1354 55.4144 88.176 55.5125 88.222 55.6376C88.2681 55.7633 88.3184 55.9165 88.3748 56.098C88.3444 55.9258 88.3233 55.7681 88.3092 55.624C88.2952 55.4794 88.2881 55.3484 88.2881 55.2281V53.2505H89.1288V56.7421H87.9712L86.9204 54.5722C86.8706 54.4725 86.8256 54.3641 86.7844 54.2466C86.7444 54.1296 86.7065 54.0018 86.6718 53.8642C86.7048 54.0722 86.7292 54.2634 86.7444 54.4378C86.7601 54.6122 86.7677 54.7666 86.7677 54.8993V56.7421H85.927V53.2505ZM79.161 53.2505H81.5871V53.9037H80.0922V54.609H81.5032V55.2725H80.0922V56.0688H81.643V56.7421H79.161V53.2505ZM70.7354 53.2505H72.0879L72.6952 55.3489C72.7195 55.4328 72.7379 55.526 72.7531 55.63C72.7683 55.734 72.7791 55.8461 72.7862 55.9653C72.7975 55.8364 72.8122 55.7172 72.8284 55.6078C72.8463 55.4989 72.8652 55.4058 72.8869 55.3288L73.4952 53.2505H74.8261V56.7421H73.9935V54.3977C73.9935 54.2861 73.9968 54.1713 74.0033 54.0511C74.0098 53.9313 74.0184 53.8041 74.0309 53.6681C74.0098 53.7727 73.9865 53.8734 73.9632 53.9693C73.9399 54.0646 73.9144 54.1556 73.8879 54.2412L73.1399 56.7421H72.3447L71.6129 54.2818C71.588 54.1973 71.5636 54.1025 71.5403 53.9985C71.517 53.8945 71.4948 53.7846 71.4748 53.6681C71.4862 53.8333 71.4948 53.9828 71.5019 54.1144C71.5089 54.2461 71.5122 54.3457 71.5122 54.4129V56.7421H70.7354V53.2505ZM63.1802 53.2505H64.3426L65.3545 55.344C65.3886 55.4144 65.4292 55.5125 65.4753 55.6376C65.5213 55.7633 65.5717 55.9165 65.628 56.098C65.5977 55.9258 65.5766 55.7681 65.5625 55.624C65.5484 55.48 65.5414 55.3484 65.5414 55.2281V53.2505H66.382V56.7421H65.2245L64.1737 54.5722C64.1249 54.4719 64.0783 54.3641 64.0377 54.2466C63.9971 54.1296 63.9597 54.0018 63.925 53.8642C63.9581 54.0722 63.9819 54.2639 63.9971 54.4378C64.0128 54.6122 64.0209 54.7672 64.0209 54.8993V56.7421H63.1802V53.2505ZM57.7203 53.2505H58.6514V56.7421H57.7203V53.2505ZM51.8515 54.0294L51.3995 55.3391H52.2885L51.8515 54.0294ZM51.308 53.2505H52.4311L53.753 56.7421H52.7582L52.51 56.0021H51.1655L50.9054 56.7421H49.9837L51.308 53.2505ZM43.6724 53.2505H46.3329V53.9481H45.4682V56.7421H44.5371V53.9481H43.6724V53.2505ZM37.7902 53.8642V54.759H38.1173C38.3186 54.759 38.4696 54.7233 38.5703 54.6501C38.6708 54.577 38.7212 54.4676 38.7212 54.3214C38.7212 54.1648 38.6649 54.0489 38.5526 53.9752C38.441 53.901 38.2632 53.8642 38.0208 53.8642H37.7902ZM36.8784 53.2505H38.2665C38.7287 53.2505 39.0718 53.3252 39.2948 53.4753C39.5188 53.6253 39.6304 53.8534 39.6304 54.1594C39.6304 54.3858 39.5717 54.5716 39.4535 54.7173C39.3351 54.8636 39.165 54.9605 38.9425 55.0103C39.1255 55.077 39.273 55.2676 39.3846 55.5818C39.3846 55.584 39.3846 55.5845 39.3846 55.5845L39.8024 56.7421H38.8319L38.5249 55.786C38.4754 55.6327 38.4082 55.526 38.3236 55.4664C38.2381 55.4074 38.1056 55.3781 37.9252 55.3781H37.7902V56.7421H36.8784V53.2505ZM29.949 53.2505H32.3746V53.9037H30.88V54.609H32.2908V55.2725H30.88V56.0688H32.4309V56.7421H29.949V53.2505ZM22.9411 53.2505H25.6017V53.9481H24.7369V56.7421H23.8059V53.9481H22.9411V53.2505ZM15.018 53.2505H16.1805L17.1921 55.344C17.2265 55.4144 17.2668 55.5125 17.3129 55.6376C17.359 55.7633 17.4094 55.9165 17.4655 56.098C17.4354 55.9258 17.4143 55.7681 17.4002 55.624C17.3859 55.4794 17.3792 55.3484 17.3792 55.2281V53.2505H18.2196V56.7421H17.0621L16.0111 54.5722C15.9616 54.4725 15.9164 54.3641 15.8753 54.2466C15.835 54.1296 15.7973 54.0018 15.7629 53.8642C15.7956 54.0722 15.8199 54.2634 15.835 54.4378C15.851 54.6122 15.8585 54.7666 15.8585 54.8993V56.7421H15.018V53.2505Z" fill="white" stroke="black" stroke-width="0.432054"/>
<path fill-rule="evenodd" clip-rule="evenodd" d="M31.4644 42.5834C31.4644 42.5834 31.6538 43.417 32.1211 43.1029C32.5883 42.7893 32.7777 42.3186 33.245 42.3186C33.7122 42.3186 35.6599 41.9524 36.1272 42.3186C36.5944 42.6847 36.6412 42.3706 36.8748 42.3706C37.1085 42.3706 37.7948 42.4924 37.7948 42.4924C38.3921 42.4301 38.2703 41.4806 37.8386 41.2027C37.2154 40.7147 36.3765 40.401 35.7534 39.9125C35.691 39.4418 35.6288 38.971 35.5665 38.5003C35.7378 38.2566 35.9091 38.0123 36.0805 37.768C36.0805 36.9838 36.0805 36.1992 36.0805 35.4147C35.987 35.2054 35.8936 34.9962 35.8001 34.787C35.7689 34.1944 35.7378 33.6017 35.7066 33.0088C35.6288 32.9042 35.5508 32.7996 35.473 32.695C35.473 32.4685 35.473 32.2418 35.473 32.015C35.6288 31.7885 35.9443 31.5619 36.1002 31.3352C36.1469 30.8993 35.938 30.5917 35.9848 30.1558C35.8757 29.598 35.8624 28.9119 35.7534 28.354C35.7534 27.6741 35.7534 26.9941 35.7534 26.3142C36.2054 26.1795 36.3149 25.9792 36.3472 25.7765C36.3887 25.5156 36.2609 25.2085 36.1272 24.5882C36.0649 21.3282 36.0346 17.9398 35.9723 14.6796C36.2209 14.2899 36.5189 14.0884 36.5251 13.7997C36.53 13.575 36.2887 13.3876 35.9871 13.1342C35.9871 12.9076 35.9871 12.681 35.9871 12.4543C35.9871 12.4543 36.5011 11.4082 36.9215 11.4082C37.3421 11.4082 37.6225 11.0944 37.6225 10.7807C38.0062 10.0183 37.202 9.94379 37.202 9.94379C36.3119 9.92532 35.3037 9.97087 34.4355 9.95256C33.6696 9.93626 33.0409 9.85559 32.2956 9.83918C31.9685 9.85673 31.6414 9.87401 31.3143 9.89145C30.5104 10.1356 30.6794 10.5721 30.9873 10.816C31.361 11.0513 31.68 11.3208 32.1087 11.3298C32.6318 11.3407 33.0482 11.5121 33.2301 12.0358C33.2769 14.1279 33.3236 16.22 33.3703 18.312C33.3859 19.855 33.4335 21.398 33.4489 22.9407C33.4645 24.4835 33.4484 26.0265 33.4637 27.5694C33.4949 29.3826 33.526 31.1957 33.5572 33.0088C33.5572 33.0088 33.4638 33.6888 33.3236 33.8457C33.1834 34.0026 33.2301 35.3623 33.2301 35.3623C33.7476 35.8132 33.6376 35.7501 33.2769 36.3562C33.2456 37.6987 33.2145 39.0409 33.1834 40.3832C33.0588 40.6275 32.9342 40.8718 32.8095 41.1155C32.8095 41.1155 31.4644 41.9036 31.4644 42.5834ZM8.8352 49.0851C8.14231 48.9426 8.0124 48.6073 8.25851 48.4096C8.4062 48.291 8.80101 48.2953 8.9785 48.2124C9.23824 48.09 9.50356 47.9297 9.65994 47.7363C9.92719 47.4054 9.76507 46.6394 10.084 46.0154C10.3905 43.3829 10.4823 39.8951 10.176 38.7219C9.99208 36.9137 10.1809 30.9074 10.1809 30.1462C10.3844 29.7805 10.4607 29.7505 10.4623 29.1097C10.4628 28.8593 10.6314 28.4695 10.4519 28.1597C10.1915 27.8624 10.2702 26.7002 10.2498 26.045C10.2197 25.0698 10.2913 25.0778 10.5626 24.1943C10.6648 23.8619 10.6994 23.4664 10.5626 23.1477C10.3415 22.6326 10.0218 23.2277 10.0431 22.1932C10.0953 19.6829 10.1889 17.1573 10.1229 14.648C10.1372 14.4244 10.5095 14.3836 10.5824 14.1722C10.6751 13.9035 10.7058 13.5711 10.5824 13.3159C10.5126 13.1712 10.1215 13.3594 10.0068 13.2497C9.30563 12.5798 8.42459 12.159 8.01831 11.2651C7.86083 10.9185 8.11481 10.1513 8.44866 9.98549C9.00173 9.7107 10.0305 9.99476 10.6356 9.89038C10.9611 9.83431 11.167 9.64067 11.4967 9.62616C14.0679 9.51289 16.7138 9.25586 19.2758 9.50968C19.6859 9.55031 19.8211 10.2738 20.1949 10.4534C20.7073 10.6997 21.4566 10.6469 21.8494 11.0671C22.479 11.7404 22.9307 12.2951 23.0106 13.2285C23.1086 14.3739 23.3054 15.6712 23.2958 16.551C23.2877 17.2878 23.0662 17.9528 22.7378 18.5865C22.2879 19.455 21.7523 20.2655 21.1724 21.1235C20.838 21.6179 20.243 22.077 20.103 22.6408C19.9583 23.2237 21.4643 22.7958 21.7724 23.3061C22.0685 23.7968 21.5197 24.3717 21.6853 24.9246C21.8331 25.4176 22.6869 25.4657 22.7883 25.9712C23.0498 27.2758 22.4727 28.6554 22.6964 29.9675C22.7679 30.3876 23.4345 30.4026 23.4992 30.824C23.5779 31.7344 23.5498 32.6981 23.5569 33.6654C23.5643 34.6949 23.6042 35.7291 23.5911 36.7078C23.5658 37.0767 23.0828 37.2924 23.0396 37.6591C22.9246 38.6358 23.2602 39.7386 23.0445 40.6963C22.8173 41.7048 22.0064 42.4171 21.6901 43.3997C21.4161 44.2507 21.4938 45.4933 21.0517 46.0268C20.3204 46.2565 19.4102 46.771 18.8342 47.2C17.9925 47.8262 17.4544 48.5439 17.1957 48.5667C16.8669 48.8592 16.1713 48.6636 15.7637 48.8158C15.3877 48.9556 15.3523 49.2708 14.9559 49.2194C14.6429 49.1793 14.7405 48.9193 14.4963 48.7129C14.3542 48.5921 14.0809 48.5845 13.9449 48.7129C13.1198 49.377 13.7352 49.2031 12.7983 49.1165C11.8466 49.0287 9.99376 49.3223 8.8352 49.0851ZM14.1668 45.2658C14.3813 44.8535 14.5958 44.4413 14.8104 44.0286C14.749 42.6652 14.6877 41.3013 14.6264 39.9374C14.8104 39.6833 14.9942 39.4298 15.178 39.1758C15.178 37.8021 15.178 36.4285 15.178 35.0547C15.178 34.4301 15.0909 33.8056 15.0909 33.1813C14.4457 32.6476 14.7542 32.6554 15.2747 32.0396C15.2747 31.437 15.42 30.9509 15.42 30.3481C15.3586 29.8408 15.2974 29.3332 15.2361 28.8257C15.3281 28.5721 15.42 28.3183 15.5119 28.0645C15.5119 27.3014 15.5989 26.6838 15.5989 25.9206C15.5989 25.2039 15.6197 24.9639 15.7507 25.0088C15.8817 25.0536 16.1232 25.3838 16.5641 25.8076C16.899 26.1298 17.2342 26.452 17.5693 26.7741C18.1883 27.3689 18.791 27.423 18.5401 28.3976C18.3057 29.3094 18.9795 29.5623 18.7701 30.4671C18.6101 31.1583 18.3998 31.5808 18.4464 32.0093C18.4742 32.2663 18.5947 32.5255 18.8734 32.846C19.1311 33.1422 19.2169 33.1238 19.0629 33.4883C18.8241 34.0532 18.6206 34.3827 18.5967 34.7218C18.5659 35.1576 18.8033 35.3579 19.0115 36.1277C19.1819 36.7574 19.166 37.1749 19.0083 37.8065C18.8216 38.5556 18.6349 39.3047 18.4481 40.0538C18.4271 40.6204 18.3755 41.1875 18.3352 41.7547C18.2743 42.6186 18.1592 42.6408 17.5584 43.2583C17.0126 43.8195 16.3102 44.2994 15.7836 44.801C15.2016 45.0231 14.749 45.0437 14.1668 45.2658ZM15.5731 21.224C16.0394 21.2377 16.248 21.2838 16.3925 21.2243C16.5372 21.1646 16.6179 20.9992 16.8288 20.59C17.1012 20.061 17.5047 19.4 17.8394 19.3503C18.4031 19.2666 18.6973 19.1827 18.6973 19.1827C18.6973 19.1827 18.9923 19.1268 18.8914 18.3997C18.7904 17.6726 18.5823 16.9734 18.7657 16.7777C18.9489 16.582 18.9876 16.0227 18.7925 15.799C18.5977 15.5754 18.4124 15.3516 18.7273 15.044C19.0422 14.7364 19.2592 14.2214 18.5068 14.3054C17.7544 14.3893 17.7638 14.0636 17.6768 13.8398C17.5898 13.6162 16.7691 13.6672 16.34 13.6426C15.9113 13.7265 15.5508 13.6985 15.5632 14.1459C15.5757 14.5932 15.5036 16.7498 15.5098 16.9735C15.516 17.1972 15.5731 21.224 15.5731 21.224ZM39.3727 40.8544C39.3392 41.0446 38.9028 41.0456 38.9363 41.2363C38.9832 41.5023 39.0007 41.9177 39.2687 41.9524C40.0459 42.0531 41.1115 41.7438 41.8822 41.8863C42.1866 41.9426 42.2032 42.4615 42.4823 42.5953C42.7115 42.5915 43.0644 42.5997 43.3552 42.5953C43.579 42.4789 43.5188 42.0683 43.737 41.941C44.0058 41.7839 44.3723 41.7244 44.6644 41.8316C44.8217 41.8896 44.6071 42.3028 44.7735 42.3229C46.1332 42.2714 47.3479 42.4204 48.6344 42.3229C48.8913 42.2806 48.6295 41.9128 48.84 41.7601C49.0792 41.5862 49.6725 41.8895 49.7128 41.5965C49.9217 40.0815 49.5956 38.3898 49.7379 36.8675C49.7835 36.3801 50.2511 36.0911 50.3557 35.6128C50.3905 35.4535 50.5815 35.4506 50.5966 35.2937C50.6496 34.7474 50.6399 34.0848 50.5017 33.5468C50.3184 33.3588 49.7581 33.2905 49.5743 33.3761C49.3672 33.5286 49.5555 34.0699 49.4164 34.2861C49.3476 34.3932 49.1027 34.1788 49.0345 34.2861C48.9675 34.3916 49.0542 34.5648 49.0849 34.7016C49.1033 34.7836 49.1016 34.8528 49.0345 34.8862C48.6768 35.0651 48.15 34.6407 47.8344 34.8862C47.5246 35.1272 47.8724 35.5934 47.6103 35.8855C47.1855 36.359 46.2752 36.6364 45.852 37.1114C45.3489 37.6759 45.3938 38.2523 44.8156 38.7398C44.363 39.1211 43.5939 39.1612 43.0455 39.3838C42.4097 39.6422 42.1062 40.1183 41.4458 40.3041C41.2463 40.3604 41.0028 40.0116 41.0639 39.8133C41.5587 38.2095 42.2016 36.597 42.7358 35.0057C43.0784 33.9848 43.2393 33.3407 43.6095 32.3293C43.9926 31.2826 44.493 29.9889 45.1185 29.0664C45.2417 28.8846 45.6527 29.0032 45.7186 28.7936C45.8822 28.2732 45.5761 27.6835 45.7186 27.157C45.824 26.7673 46.2343 26.3933 46.5738 26.175C46.8032 26.0276 47.1693 26.233 47.2705 25.9798C47.507 25.3888 47.2861 24.7626 47.435 24.1437C47.5353 23.7267 47.8217 23.4711 48.004 23.0828C48.2458 22.5673 48.2282 22.1198 48.495 21.6167C48.7122 21.2075 49.1692 20.6346 49.3008 20.1902C49.4816 19.5799 49.3334 19.2803 49.3923 18.6465C49.408 18.4758 49.6581 18.3814 49.6651 18.2101C49.7497 16.1571 49.8584 14.097 49.7379 12.0456C49.7282 11.8784 49.3527 11.8857 49.356 11.7183C49.3691 11.0914 49.4451 10.5376 49.4106 9.9726C49.404 9.86221 49.4421 9.7718 49.3318 9.76719C47.6235 9.69553 45.9374 9.73443 44.228 9.75436C42.8279 9.77056 41.4242 9.65833 40.0274 9.75436C39.816 9.76888 39.6266 9.80522 39.4818 9.95975C39.3429 10.108 39.274 10.4244 39.2821 10.6272C39.3188 11.5389 39.2638 12.5314 39.2821 13.6277C39.2853 13.8308 39.6855 13.7092 39.7546 13.9004C39.947 14.433 39.9617 15.0272 39.9183 15.5916C39.9044 15.7729 39.684 16.0171 39.6883 16.1987C39.7759 16.8298 39.8576 17.2758 39.9729 17.8828C40.0391 18.1176 40.2411 18.3009 40.3002 18.5375C40.3707 18.8202 40.1129 19.3914 40.4034 19.4103C40.4999 19.4165 40.8367 19.4728 41.0093 19.4103C41.2313 19.3299 40.9277 18.9229 41.0093 18.7011C41.0672 18.5439 41.3647 18.5392 41.3912 18.3739C41.5355 17.4756 41.2848 16.4229 41.4273 15.5242C41.4708 15.2503 41.6277 14.961 41.8637 14.8151C42.0645 14.6907 42.4279 15.0015 42.573 14.8151C42.7741 14.5563 42.5762 14.2582 42.7005 13.955C42.8786 13.5211 43.1682 13.1209 43.5188 12.8094C43.8408 12.5231 44.163 12.1805 44.5914 12.1359C45.5493 12.0364 46.6951 12.1257 47.9922 12.0699C48.1138 12.0645 48.1465 12.2514 48.1559 12.3729C48.2017 12.9712 48.3107 13.784 48.1559 14.1732C47.9312 14.7381 47.423 15.3685 46.9071 15.9551C46.5542 16.3563 46.1974 16.7113 45.925 17.1133C45.5986 17.5954 46.0863 18.2527 45.9192 18.8103C45.7481 19.3806 45.2809 19.9869 44.9188 20.4597C44.6217 20.8475 44.1851 21.0461 43.9067 21.4474C43.559 21.9485 43.3565 22.4419 43.1369 23.0109C42.9544 23.484 42.8367 23.9833 42.7551 24.4839C42.6906 24.8791 42.8795 25.326 42.7005 25.684C42.5694 25.9463 42.2735 25.8979 42.0828 26.1204C41.8182 26.4292 41.6632 26.825 41.5372 27.2115C41.388 27.6693 41.3757 27.9405 41.1427 28.3617C40.8813 28.8343 40.3566 29.2907 40.1188 29.7755C39.8594 30.3043 39.8297 30.9468 39.7001 31.5212C39.5747 32.0768 39.4698 32.6 39.3551 33.1578C39.2146 33.8405 39.0679 34.5342 39.0823 35.2309C39.0866 35.4429 39.3109 35.5889 39.4096 35.7764C39.493 35.9348 39.6844 36.0976 39.6279 36.2674C39.5506 36.4994 39.1169 36.5162 39.0823 36.7584C39.0467 37.0084 39.1103 37.2393 39.2939 37.4132C39.4535 37.5638 39.7794 37.4983 39.894 37.6857C40.0173 37.8877 39.9951 38.1813 39.894 38.3947C39.8099 38.5729 39.5145 38.5296 39.476 38.7224C39.3191 39.5073 39.5117 40.0663 39.3727 40.8544ZM86.6724 48.5856C86.57 48.2606 86.8257 48.1973 86.9958 48.0277C87.2444 47.7796 87.4849 47.5375 87.5835 47.0489C87.6208 46.8637 87.8104 46.5641 87.8543 46.2673C87.9187 45.834 87.8202 45.3822 87.7021 45.1022C87.5472 44.7355 87.2931 44.5443 87.3852 44.1944C87.4177 43.9706 87.9236 43.943 88.3223 43.7659C88.5314 43.6733 88.7107 43.4918 88.7773 43.3212C88.8645 43.0964 88.5742 43.1348 88.4263 42.8494C88.2687 42.5455 88.2454 42.0905 88.124 41.8641C87.9123 41.4698 87.5249 40.9405 87.5109 40.4926C87.473 39.2977 87.8191 38.0914 87.8635 36.9417C87.9009 35.9776 88.1289 35.7479 88.0552 34.76C88.019 34.2681 87.7546 33.9102 87.4816 33.408C87.2558 32.9918 86.9589 32.5799 86.8452 32.1873C86.6431 31.4887 86.8462 30.6606 86.7238 29.9438C86.7 29.8033 86.3479 29.6314 86.3349 29.4893C86.2439 28.5052 86.355 27.4975 86.2916 26.5241C86.2591 26.341 86.1107 26.3061 86.0933 26.121C86.0419 25.5754 86.0928 25.044 86.0912 24.5724C86.0895 24.1561 86.0321 23.8005 86.0321 23.3168C86.0321 23.1365 85.8826 23.013 85.8767 22.8327C85.8404 21.7684 85.8848 20.5932 85.8707 19.5272C85.8555 18.3924 85.7862 17.3666 85.8767 16.2365C85.8924 16.046 86.2775 16.0506 86.2699 15.8598C86.2342 14.9938 86.1594 14.6495 86.1795 13.7785C86.1816 13.678 86.3875 13.4445 86.3956 13.3443C86.4557 12.6197 86.5456 11.8944 86.3609 11.2743C86.2277 10.8252 85.8907 10.6853 85.504 10.3955C85.1628 10.1396 84.782 9.72355 84.4662 9.49036C84.0621 9.19174 83.7929 8.95156 83.4868 8.50436C83.3027 8.2352 83.6065 8.2117 83.9456 8.20178C84.3811 8.18906 84.8567 8.22708 85.2711 8.29197C85.4114 8.31391 85.6752 8.55565 85.8079 8.60706C86.1275 8.73099 86.3365 8.57007 86.6637 8.67217C86.9134 8.75023 87.9561 9.29384 88.2367 9.45553C88.6202 9.67642 88.7443 9.99741 89.1445 10.185C89.2166 10.2188 90.4532 10.5728 90.5968 10.6087C90.9315 10.6922 91.1395 10.4475 91.4743 10.5311C91.8632 10.628 92.5549 10.8239 92.9915 10.9546C93.2374 11.0282 93.3928 11.3189 93.6447 11.369C94.8662 11.6128 94.6479 11.2056 95.6153 12.1729C95.9002 12.4579 96.3709 12.6868 96.5833 13.0293C96.8833 13.5126 96.9147 14.105 97.1054 14.6318C97.2538 15.0413 97.5853 15.3778 97.6639 15.813C97.8757 16.9841 97.6547 18.2019 97.7982 19.3833C97.8421 19.7442 98.2131 20.1248 98.2521 20.4864C98.4 21.8703 98.4249 23.2369 98.2565 24.6185C98.1996 25.0841 97.8074 25.2736 97.7375 25.7374C97.6211 26.5156 97.8535 27.3125 97.7982 28.0975C97.7722 28.4734 97.5631 28.8659 97.366 29.1868C97.2219 29.4204 96.8925 29.5047 96.7869 29.7576C96.509 30.4217 96.5789 31.3297 96.45 32.0492C96.4099 33.4226 96.4381 34.4881 96.4971 35.8606C96.5388 36.8281 96.638 37.6965 96.5145 38.6569C96.4711 38.9895 96.1927 39.172 96.1429 39.5041C96.0053 40.4216 96.1234 41.3641 96.0345 42.2877C96.0194 42.4448 95.7865 42.6268 95.7534 42.7811C95.6917 43.6251 95.6326 44.8568 95.2648 45.8069C95.0227 46.4336 94.4339 47.0652 93.8684 47.4281C93.3208 47.7796 92.732 47.8555 92.101 48.0163C91.7023 48.1176 91.256 48.0689 90.8909 48.2579C90.672 48.3717 90.8188 48.3733 90.619 48.5163C90.5036 48.5981 90.3042 48.6051 90.1954 48.5163C90.0415 48.3901 90.0892 48.3386 89.9099 48.2536C89.6364 48.1241 89.28 48.1344 89.0021 48.2536C88.8017 48.3397 88.8748 48.4963 88.6603 48.538C88.2275 48.6225 87.7205 48.7319 87.2525 48.7194C86.9725 48.7124 86.7514 48.8386 86.6724 48.5856ZM90.7343 17.5091C91.3421 17.4769 91.4613 17.4439 92.0024 17.7346C92.5619 18.0346 92.6789 18.2325 93.0207 18.7747C93.1973 18.9448 93.3733 19.1149 93.5494 19.2849C94.2682 19.9787 94.6072 20.9579 94.9008 21.8754C94.949 22.8715 95.163 24.6167 94.6657 25.5205C94.4177 25.9717 94.3196 26.32 94.2774 26.7028C94.1598 27.774 93.856 27.6068 93.5467 28.418C93.4627 28.638 93.4811 28.9118 93.4735 29.434C93.4464 31.2988 93.4188 33.1639 93.3917 35.0286C93.3744 36.2201 93.1502 36.7886 92.6686 37.8888C92.3859 38.4148 92.2375 38.7538 92.2375 39.3508C92.2375 40.0582 92.0928 40.3843 91.8117 41.0289C91.6405 41.421 91.4688 41.8137 91.2977 42.2064C91.0945 42.6717 90.9082 42.8385 90.7733 42.7762C90.6385 42.7145 90.555 42.4225 90.5572 41.9708C90.5691 39.6942 90.581 37.4181 90.5929 35.1415C90.6189 32.7211 90.645 30.3007 90.671 27.8804C90.6406 27.3606 90.6601 27.2455 90.3189 26.86C90.2869 26.0765 90.1358 25.722 89.8877 24.9761C89.5746 24.3879 89.6104 23.9588 89.6028 23.2863C89.5833 21.6042 89.5633 19.9218 89.5438 18.2396C89.5318 17.2074 89.7653 17.5603 90.7343 17.5091ZM51.0648 46.4499C50.8776 45.5344 51.0085 44.807 51.0576 44.1185C51.081 43.9544 51.4121 44.1077 51.5021 43.969C51.6363 43.7616 51.7575 43.4772 51.6688 43.2464C51.6156 43.1083 51.5214 43.299 51.4419 43.1738C51.3321 43.0016 51.3707 42.7232 51.4975 42.5628C51.6824 42.3283 52.0523 42.389 52.1787 42.1181C52.351 41.7487 52.0553 41.284 52.1787 40.8956C52.2179 40.7721 52.5371 41.0218 52.5676 40.8956C52.7116 40.3014 52.5325 39.6665 52.6232 39.062C52.6468 38.9044 52.786 38.8313 52.8043 38.6731C52.8814 38.0107 52.9215 37.3293 52.8043 36.6726C52.7315 36.265 52.4021 35.9716 52.3454 35.5614C52.1392 34.0736 52.0768 32.4536 52.2682 30.9638C52.4169 29.8071 53.1543 28.0185 53.5874 26.9357C53.8583 26.2583 53.9911 26.4696 54.2346 25.7817C54.309 25.5715 54.3606 25.3265 54.2902 25.115C54.2024 24.8514 53.8914 24.65 53.9352 24.3756C53.9888 24.0395 54.4022 24.048 54.5124 23.7258C54.6623 23.2878 54.3607 22.7741 54.5124 22.3367C54.691 21.822 55.3061 21.5265 55.457 21.0031C55.6011 20.5037 55.4467 19.7058 55.5877 19.2054C55.8666 18.2168 56.2016 17.5782 56.6795 16.6689C56.9617 16.132 57.4522 15.6784 57.6725 15.1131C57.885 14.5684 57.8633 13.8472 57.9575 13.3906C57.6103 12.9565 56.8134 13.5623 56.2906 13.3736C56.0253 13.2778 56.0262 12.8441 55.7637 12.7407C55.2014 12.7025 54.6637 12.6895 54.2634 12.9898C53.7264 13.3925 53.7221 13.8645 53.5122 14.5018C53.1986 15.4542 53.4377 16.524 53.0461 17.4468C52.8913 17.8118 52.2598 17.9144 51.9564 18.1692C51.7959 18.304 51.7213 18.4445 51.5119 18.4445C51.3023 18.4445 51.1196 18.3721 51.0673 18.1692C50.9609 17.7568 51.0881 17.3167 51.0673 16.8912C51.051 16.5562 50.8716 16.2155 50.9562 15.891C51.0003 15.722 51.3872 15.7874 51.4008 15.6132C51.5669 13.704 51.3385 11.8072 51.3677 9.98283C51.3779 9.34231 51.5479 9.43727 52.1784 9.43088C53.2405 9.41994 54.9238 9.42816 56.1445 9.42199C58.2863 9.41126 60.4335 9.33132 62.5693 9.38982C62.8872 9.41284 63.3011 9.53087 63.3233 9.84872C63.3682 10.4915 62.9376 11.1112 62.6397 11.6824C62.4821 11.9843 62.13 12.1816 62.0141 12.5015C61.8169 13.0436 62.0309 13.686 61.8229 14.224C61.6956 14.5542 61.0483 14.6152 60.9243 14.9464C60.7482 15.4149 61.0521 15.9811 60.8684 16.4466C60.7774 16.6778 60.2845 16.5458 60.2017 16.78C59.9222 17.5729 60.0863 18.4685 59.8685 19.2805C59.7478 19.7288 59.4081 20.0431 59.3469 20.503C59.1801 21.7514 59.4552 23.0268 59.3469 24.2815C59.3231 24.5539 59.0355 24.7418 58.9575 25.0038C58.7744 25.62 58.659 26.2859 58.4477 26.8931C58.3567 27.1553 58.0187 27.2914 57.9478 27.5599C57.8435 27.9538 58.1049 28.4065 57.9478 28.7823C57.75 29.2548 57.0538 29.4481 56.9475 29.9492C56.6476 31.3635 57.1226 32.8546 56.9018 34.2833C56.803 34.9227 56.2395 35.425 56.1238 36.0614C55.9748 36.8814 56.2315 37.8509 56.0271 38.6585C55.8299 39.4385 55.2646 40.1145 54.9811 40.8669C54.9148 41.6052 54.0301 42.2828 54.5124 42.8407C55.0943 42.9176 56.0599 43.0363 56.7351 42.7291C57.0459 42.5883 56.6859 41.9361 56.9573 41.7292C57.787 41.0955 58.7392 40.8669 59.6703 40.3956C60.2028 40.1259 60.8722 39.8686 61.3473 39.5068C61.5883 39.3226 61.616 38.8855 61.9025 38.7842C62.0753 38.723 62.111 39.1422 62.2914 39.1731C62.9122 39.2787 63.4506 39.0133 64.0599 39.1731C64.3037 39.237 64.2961 39.5647 64.3595 39.8085C64.4164 40.0267 64.515 40.2618 64.3936 40.4509C64.3205 40.5646 64.0556 40.4379 64.0042 40.5625C63.8985 40.8192 63.9397 41.1258 64.0042 41.3956C64.0551 41.6057 64.2474 41.7363 64.2653 41.9513C64.3606 43.0774 64.392 44.2182 64.2653 45.3411C64.2387 45.5767 64.1049 45.8237 63.8693 45.848C62.2665 45.7744 60.785 45.8919 59.1801 45.8968C59.0149 45.8822 59.1097 45.5897 58.9575 45.5247C58.5436 45.347 57.7974 45.3226 57.3581 45.4234C56.8472 45.5404 56.8045 45.9607 56.2906 46.0631C55.3644 46.2483 54.2939 46.0669 53.3599 46.2082C53.0298 46.2581 52.7777 46.5381 52.4539 46.6188C52.0047 46.7309 51.2962 46.8507 51.0648 46.4499ZM26.3138 49.0596C25.6209 49.3028 24.8125 49.0601 24.0781 49.0758C23.8517 49.0807 23.4833 49.2584 23.2658 49.1945C23.0285 49.1251 22.6545 48.6544 22.8028 48.4562C23.3825 47.6832 24.5252 47.5868 25.0544 46.7792C25.3656 46.3041 25.0741 45.6644 25.2078 45.1125C25.2489 44.9429 25.5459 44.9586 25.6338 44.8081C25.7052 44.6856 25.7262 44.4901 25.6338 44.3823C25.4228 44.1358 25.2891 44.6526 25.2059 43.9149C25.1313 43.2551 25.1157 42.585 25.1769 41.9258C25.2154 41.506 25.5205 41.5949 25.5782 41.3733C25.6856 40.9611 25.4621 40.6556 25.5728 40.244C25.6224 40.0593 25.9648 40.1058 26.0597 39.9395C26.1501 39.7814 26.1608 39.5441 26.0597 39.3919C25.8524 39.081 25.2889 39.0859 25.2261 38.7175C25.1107 38.0399 25.1725 37.3125 25.1844 36.6401C25.1972 35.9241 25.148 35.206 25.2077 34.4765C25.2187 34.3411 25.5251 34.3469 25.5728 34.2197C25.6653 33.9729 25.6068 33.69 25.5728 33.4286C25.5456 33.2188 25.6101 32.7897 25.594 32.5788C25.5693 32.2547 25.4301 32.1343 25.5807 31.8464C25.6857 31.6458 26.0281 31.7666 26.0597 31.5422C26.2261 30.357 25.8708 29.1419 25.9988 27.9519C26.0205 27.7503 26.3379 27.7823 26.3913 27.5867C26.4772 27.2712 26.5037 26.9086 26.3639 26.6131C26.298 26.4736 25.987 26.4731 25.9749 26.3192C25.8383 24.5802 26.0761 22.9362 25.9379 21.1972C25.925 21.0344 25.525 21.2628 25.5176 20.5561C25.5094 19.8154 25.4411 19.125 25.4512 18.5805C25.4589 18.1628 26.3602 18.1515 26.3506 17.7338C26.3361 17.0972 26.4364 16.3788 26.2898 15.7257C26.2426 15.5157 25.9686 15.5504 25.8771 15.3554C25.7909 15.1722 25.8722 14.9895 25.9511 14.8025C26.0458 14.5776 26.3031 14.4356 26.3639 14.1992C26.4753 13.7672 26.4641 13.2953 26.3639 12.8604C26.3311 12.7181 26.0855 12.5791 26.0172 12.45C25.8908 12.211 25.948 12.0001 25.7791 11.7888C25.6625 11.643 25.3179 11.7326 25.176 11.6114C24.8106 11.2994 24.6 10.9525 24.2935 10.6684C24.0055 10.4015 23.6172 10.2004 23.3953 9.80744C23.2527 9.55503 23.4188 9.11839 23.6493 8.94213C23.8263 8.80682 24.1036 8.83743 24.3002 8.94213C24.4601 9.02739 24.4569 9.36696 24.6362 9.39182C25.4205 9.50108 26.199 9.15582 26.9724 9.3258C27.3095 9.39995 27.3275 9.82581 27.6418 9.96843C27.852 10.0639 28.231 9.87933 28.4223 10.0086C28.7031 10.1983 28.9413 10.602 29.1627 10.8274C29.4472 11.1173 29.6926 11.2463 29.8379 11.6567C30.0212 12.175 29.9409 12.7067 29.9328 13.2457C29.9258 13.7213 30.0032 14.2029 29.9595 14.686C29.9449 14.8485 29.6328 14.772 29.5891 14.9294C29.5125 15.2056 29.5673 15.5149 29.7108 15.7628C29.8152 15.9433 30.0979 15.8514 30.1659 16.0485C30.3245 16.509 30.3447 17.0735 30.2268 17.5461C30.1829 17.722 29.8433 17.6086 29.8325 17.7895C29.6959 20.0776 29.6617 22.3856 29.8934 24.6658C29.9326 25.0534 30.5454 25.1914 30.5866 25.5786C30.8162 27.7369 30.6072 29.9214 30.5178 32.0898C30.5053 32.3982 30.3524 32.7859 30.2268 33.016C30.0861 33.2733 30.1736 33.5303 30.1788 33.8142C30.1857 34.1792 30.142 34.5773 30.1976 34.9499C30.2294 35.1627 30.6623 35.3653 30.6474 35.58C30.6064 36.1715 30.6905 36.4512 30.7267 37.0344C30.7441 37.3152 30.2328 37.4907 30.0706 37.7203C29.954 37.8855 29.883 38.2057 29.9781 38.3844C30.0677 38.5529 30.2287 38.4673 30.2797 38.6515C30.3518 38.912 30.3579 39.1319 30.2268 39.3686C30.1421 39.5209 29.8304 39.5008 29.8008 39.6725C29.7179 40.154 29.9913 40.6497 29.9225 41.1334C29.9019 41.278 29.579 41.232 29.5574 41.3766C29.4492 42.0986 29.6798 42.8472 29.5574 43.5671C29.5112 43.839 29.09 43.9614 29.0706 44.2366C29.0596 44.3904 29.4238 44.2832 29.4965 44.4191C29.6114 44.6347 29.3231 45.0811 29.5574 45.1493C30.336 45.3773 31.2995 45.3183 32.0841 45.1125C32.5285 44.9955 32.7165 44.3725 33.1741 44.3292C33.7254 44.2772 34.1321 44.6412 34.677 44.7387C35.3954 44.8682 36.1813 44.8914 36.8861 44.7019C37.3021 44.5897 37.5437 44.1483 37.9709 44.0914C39.8202 43.8428 41.5364 43.9956 43.4024 43.9858C45.1668 43.9761 47.424 43.8872 48.7338 44.0302C49.4809 44.0551 48.6708 46.6979 48.9402 48.0938C48.9988 48.3977 49.2584 48.5677 49.4144 48.8489C49.6633 49.2974 49.7597 49.5254 49.1136 49.5227C47.8983 49.5168 46.6685 49.6105 45.3499 49.5547C45.0908 49.5438 45.1033 49.0444 44.8631 48.9458C44.5998 48.838 44.2877 49.0737 44.0111 49.007C43.5968 48.9068 43.1297 48.5098 42.7068 48.4594C41.5791 48.324 40.4426 48.6068 39.3176 48.4513C39.0623 48.4161 39.0271 47.9221 38.77 47.9031C36.1402 47.7108 33.6204 47.9871 30.9881 47.8436C30.4242 47.8127 30.3728 47.6161 30.015 47.5121C29.5085 47.3658 28.6029 47.3073 28.1259 47.531C27.237 47.947 27.2399 48.7341 26.3138 49.0596ZM57.97 38.7777C57.4206 38.7614 57.3841 37.8791 57.4277 37.3379C57.4724 36.7843 58.1953 36.8134 58.4532 36.3217C58.6411 35.9637 58.3595 35.3343 58.574 34.9914C58.8047 34.6221 59.4303 34.6358 59.6611 34.2666C59.7933 34.0555 59.5961 33.6508 59.602 33.4019C59.6167 32.8127 59.7488 32.3787 59.7218 31.7901C59.7077 31.4839 59.5804 30.9308 59.6383 30.6298C59.7179 30.2187 59.9628 30.3185 60.0841 29.9176C60.2352 29.4162 59.9839 28.8456 60.1443 28.3471C60.2082 28.15 60.7249 28.2489 60.6881 28.0451C60.6431 27.7971 60.1908 27.9306 60.1459 27.6827C60.0088 26.9278 60.0013 26.0396 60.2049 25.3C60.3322 24.8373 60.8571 24.4834 60.9903 24.0221C61.1295 23.5387 60.8349 22.9906 60.9903 22.512C61.0954 22.1871 61.6322 22.1184 61.7151 21.7872C61.9101 21.0057 61.7362 20.0472 61.9393 19.2679C62.046 18.859 62.2595 18.3954 62.5211 18.1391C62.6782 17.9852 62.8195 17.8734 62.8932 17.6309C62.9939 17.2987 62.7464 17.0194 62.8033 16.6769C62.8537 16.3739 63.0849 16.1794 63.2317 15.9099C63.4175 15.5696 63.495 15.1385 63.6732 14.7947C63.9332 14.292 64.2831 13.8714 64.4695 13.3366C64.6087 12.9378 64.3097 12.2874 64.4879 11.9041C64.7403 11.3615 65.3925 11.3749 65.6411 10.8304C65.842 10.3905 65.4905 9.81567 65.7017 9.38071C65.855 9.06384 66.2012 8.92394 66.5527 8.90996C66.8105 8.89972 67.1236 9.07814 67.2114 9.32026C67.3842 9.79471 67.2282 10.3648 67.4237 10.8304C67.7666 11.6491 68.3613 12.1317 68.6912 12.9559C68.8629 13.3857 68.6771 14.0037 68.7822 14.4545C68.9252 15.0674 69.0254 15.6855 69.228 16.2824C69.4793 17.0256 69.8395 17.7466 70.0508 18.5015C70.2377 19.17 70.2826 19.8953 70.4267 20.5758C70.5323 21.0723 70.7252 21.5281 70.8963 22.0049C70.9694 22.2096 71.217 22.1576 71.276 22.3672C71.3795 22.7376 71.0686 23.1402 71.1553 23.5149C71.2582 23.9626 71.7402 24.4163 71.8193 24.8688C71.9482 25.6025 71.8139 26.3042 71.8318 27.049C71.848 27.7296 71.9201 28.3616 72.0095 29.0141C72.0647 29.4157 72.2868 29.9882 72.2971 30.28C72.3344 31.3671 72.3827 32.4374 72.3946 33.5258C72.413 35.1164 72.413 36.8168 72.3334 38.4045C72.3242 38.5897 72.1032 38.6845 72.0382 38.8584C71.7917 39.5165 71.5853 39.8805 71.4272 40.5657C71.3437 40.927 71.341 41.3159 71.1856 41.6528C71.0903 41.8598 70.665 42.0293 70.593 42.2454C70.4332 42.7264 70.6293 43.2101 70.5941 43.8103C70.5643 44.327 70.3503 44.6239 70.1353 45.1043C69.9879 45.4326 69.7485 45.9445 69.6575 46.2868C69.5584 46.6584 69.7366 47.0657 69.6278 47.4346C69.5703 47.6274 69.3071 47.7206 69.2654 47.9177C69.1608 48.4101 69.3558 48.9474 69.2047 49.4274C69.1197 49.6993 69.0606 49.6598 68.8012 49.7768C68.617 49.8591 68.1338 49.9528 68.1062 49.7524C67.9892 48.9117 68.2259 48.3278 68.0927 47.4888C67.9367 46.5073 67.5261 45.9103 67.2785 44.9472C67.1583 44.4798 67.3733 43.6348 67.1512 43.2063C66.7515 42.4345 65.4715 42.1225 65.5273 41.2553C65.581 40.4162 66.0825 39.8702 66.5933 39.1877C66.9422 38.7202 67.1691 37.957 67.3863 37.4246C67.5461 37.0319 67.6393 36.572 67.6463 36.1847C67.6572 35.6066 67.5006 35.355 67.063 34.9955C66.1486 34.2442 64.671 33.5571 63.5329 33.0038C63.3661 32.9227 63.1705 33.2411 63.1705 33.4266C63.1705 33.6123 63.3877 33.7566 63.4094 33.9406C63.4728 34.4819 63.1451 35.0435 63.3796 35.535C63.6272 36.0544 64.6038 36.2056 64.4592 36.7623C64.3617 37.1351 64.2701 37.2664 63.9538 37.4484C63.762 37.5589 63.5492 37.5514 63.3249 37.5616C62.6522 37.5925 61.9605 37.3542 61.3105 37.4918C60.6047 37.6413 59.9731 37.9674 59.3209 38.2924C58.8892 38.5079 58.4478 38.7923 57.97 38.7777ZM63.9197 30.333C63.9137 29.8002 63.9007 29.2758 63.9018 28.7517C63.9029 28.2889 63.9142 27.8263 63.9505 27.358C63.9744 27.0538 64.2528 26.8216 64.2885 26.5187C64.3487 26.0178 64.041 25.4168 64.1813 24.9351C64.2376 24.7396 64.7332 24.9357 64.8454 24.7713C64.8822 24.7175 64.9575 24.4039 65.0826 24.1366C65.1579 23.9762 65.3145 23.8322 65.3145 23.7708C65.3145 23.6813 65.3085 23.0454 65.3757 22.4945C65.4147 22.1747 65.464 21.9046 65.5127 21.9025C65.5609 21.9003 65.6097 22.1655 65.7792 22.386C65.9742 22.6398 66.0403 22.8915 66.2109 23.1599C66.3117 23.3183 66.42 23.5048 66.5863 23.5693C66.7981 23.6517 67.0516 23.5358 67.2623 23.6209C67.4199 23.6844 67.4584 23.9318 67.6003 24.0303C67.6962 24.097 67.9161 23.97 67.9383 24.0917C68.0385 24.6402 67.9518 25.3741 68.039 25.9251C68.0602 26.0571 68.3521 25.9957 68.3586 26.1298C68.403 27.0892 68.4252 28.0502 68.422 29.0112C68.4193 29.8592 68.3971 30.7074 68.3532 31.5548C68.3413 31.7962 67.7032 31.8131 67.525 31.6776C67.1805 31.4151 66.9622 31.1104 66.5115 31.002C66.3236 30.9569 66.3328 30.6593 66.1546 30.5999C65.7592 30.4682 65.2603 30.4354 64.847 30.4354C64.5772 30.4354 64.1878 30.5306 63.9197 30.4967C63.8704 30.4905 63.9202 30.3872 63.9197 30.333ZM76.7474 13.7957C76.7485 14.3478 76.8075 14.9459 76.8092 15.5239C76.8119 16.2677 76.7577 16.9341 76.7604 17.684C76.7631 18.4824 76.8227 19.3644 76.8227 20.1453C76.8227 20.78 76.7068 22.0001 76.7561 22.5273C76.8189 23.2051 76.8563 23.3226 77.7831 23.3226C78.2316 23.3226 78.8393 22.8625 79.2873 22.3976C79.5939 22.0794 79.5478 21.53 79.6654 21.2924C79.8387 20.9431 80.135 20.6237 80.1967 20.2182C80.2758 19.6966 80.0852 19.266 80.4329 18.9324C80.57 18.8005 80.6994 17.3029 80.6994 16.9733C80.6994 16.5036 80.206 15.807 79.6388 15.1838C79.251 14.7573 78.7857 14.3746 78.5874 14.0824C78.224 13.5476 77.9521 13.3129 77.5215 13.2167C76.735 13.0411 76.7469 13.1133 76.7474 13.7957ZM72.595 43.1901C72.4482 43.7697 72.8945 44.0064 73.4227 44.3476C73.9497 44.6889 74.5596 45.1352 75.1338 45.6059C76.1055 46.4022 76.7669 47.8555 77.399 49.2866C77.7246 48.9404 77.4949 47.3274 77.6775 46.361C77.7165 46.1541 77.9396 46.0046 77.9608 45.795C78.0355 45.0437 78.0539 44.2794 77.9608 43.5303C77.9255 43.2508 77.6552 43.0466 77.5832 42.7752C77.5263 42.5623 77.5399 42.3299 77.5832 42.1143C77.6357 41.8511 77.8421 41.6268 77.866 41.3593C77.9375 40.576 77.984 39.7776 77.866 39.0003C77.8215 38.7067 77.3719 38.541 77.3942 38.2452C77.4131 38.0004 77.9423 38.0183 77.9608 37.7734C78.0122 37.0719 77.769 36.3948 77.6823 35.6971C77.4863 34.1286 77.3719 32.5508 77.21 30.9785C77.152 30.4118 76.9256 29.8413 77.0215 29.2798C77.3167 28.5139 77.5864 27.7271 77.8708 27.1093C78.0095 26.9271 78.1926 27.2829 78.3334 27.4632C78.7933 28.0505 79.4043 28.7773 79.5365 29.5112C79.6984 30.411 79.2109 31.2072 79.3149 32.1157C79.3453 32.3808 79.7537 32.3333 79.8479 32.5829C80.2986 33.7753 80.6648 35.008 80.8863 36.2634C81.1387 37.6938 81.22 39.1525 81.2638 40.6047C81.2828 41.2363 81.2557 41.8863 81.0748 42.4919C80.817 43.3569 80.2796 44.0465 80.0131 44.8822C79.7342 45.7565 79.6442 46.0176 80.5694 46.0171C80.9356 46.0165 81.3629 46.0311 81.6457 46.1725C82.4029 46.5511 82.7155 47.4243 83.4343 47.8712C83.5897 47.9676 83.7929 48.1014 84.0068 48.2211C85.0262 48.792 85.1384 48.3977 85.3507 47.505C85.6307 46.3247 85.7017 45.2603 85.8832 44.0963C85.9758 43.5059 85.9563 42.9003 85.9823 42.3034C86.0191 41.4524 86.083 40.6058 86.0392 39.7548C86.0191 39.3578 86.0213 38.9234 85.7607 38.6228C85.5652 38.3969 84.9883 38.6276 84.9114 38.3395C84.8058 37.9446 85.3756 37.6158 85.3832 37.2068C85.2272 36.1035 85.0842 35.1162 85.0658 34.0287C85.0447 32.7466 84.77 33.3919 84.3448 32.8894C84.0881 32.5858 84.0079 32.318 83.9678 31.9222C83.8492 30.7639 84.0171 29.4821 83.84 28.3314C83.7609 27.8168 83.5204 27.3092 83.1797 26.9158C83.0562 26.7731 82.8298 26.9853 82.7453 26.8166C82.6039 26.5339 83.0383 26.3404 82.8726 26.0711C82.4875 25.4457 81.6815 24.9684 81.0705 24.5612C80.8874 24.4392 80.5651 24.7169 80.4096 24.5612C80.2542 24.4055 80.258 23.9276 80.4096 23.7684C81.4978 23.6108 82.0579 23.0985 82.5893 22.485C83.3102 21.6534 83.6629 20.7264 84.0242 19.687C84.191 19.2079 83.9776 18.6479 84.0334 18.1439C84.1368 17.2112 84.626 16.3642 84.4629 15.4401C84.2262 14.0962 83.5637 12.8918 82.8022 11.7596C82.3791 11.131 81.7221 10.5739 81.0374 10.2496C80.466 9.979 79.9877 10.2054 79.381 10.0279C78.6785 9.8224 78.1157 9.42942 77.399 9.28252C76.8411 9.16812 76.2556 9.40093 75.7004 9.27293C75.3537 9.19298 75.2974 8.8033 74.9453 8.74924C74.7026 8.71186 74.4545 9.06352 74.2097 9.08421C72.517 9.22759 71.1276 8.89972 69.443 9.12196C69.1917 9.15517 69.2632 9.43548 69.4718 9.57967C69.7832 9.7952 70.2566 9.68876 70.6044 9.83918C71.2284 10.1096 71.7083 10.4731 72.1709 10.9716C72.5538 11.384 72.7098 11.8426 73.0576 12.4816C73.2006 12.7435 73.6117 12.2405 73.9075 12.1985C74.2807 12.1452 74.5401 12.1351 74.7757 12.4298C74.9875 12.694 74.5493 13.0462 74.2996 13.2742C73.7943 13.7349 73.4503 13.9788 73.0034 14.2846C72.6979 14.494 72.1568 14.682 71.9298 15.0909C71.4261 15.9982 72.0235 17.03 72.2175 18.0495C72.2884 18.4214 72.3697 18.7849 72.4542 19.1537C72.7282 20.3529 72.6362 21.351 72.803 22.5698C72.8572 22.9638 73.1367 23.307 73.1805 23.7023C73.2325 24.1721 73.148 24.5182 73.2185 24.9857C73.2477 25.1847 73.4108 25.3957 73.4638 25.5897C73.6989 26.4527 73.9058 27.5366 73.9356 28.4305C74.032 31.3545 73.8587 34.2191 74.006 37.1413C74.0196 37.4073 74.4188 37.5124 74.4735 37.7734C74.5585 38.1781 74.2888 38.6428 74.1528 39.0333C73.5944 40.6323 72.9395 41.8289 72.595 43.1901Z" fill="white"/>
<path d="M98.6041 9.339H98.5202V9.75804H98.6372C98.72 9.75804 98.784 9.74027 98.8268 9.70392C98.8695 9.66757 98.8912 9.61492 98.8912 9.54521C98.8912 9.47404 98.8684 9.42209 98.8224 9.38872C98.7764 9.35535 98.7038 9.339 98.6041 9.339ZM98.6886 8.99341C98.9405 8.99341 99.1322 9.03788 99.2644 9.12612C99.3971 9.21441 99.4632 9.34344 99.4632 9.51255C99.4632 9.62603 99.4318 9.72321 99.3695 9.80624C99.3072 9.88863 99.22 9.9494 99.1062 9.98872L99.4935 10.7593H98.8869L98.5743 10.0822H98.5202V10.7593H97.9644V8.99341H98.6886ZM99.9697 9.91306C99.9697 9.73951 99.9372 9.57413 99.8716 9.41613C99.8066 9.25812 99.714 9.1187 99.5921 8.9971C99.4659 8.871 99.3251 8.77605 99.1696 8.71154C99.0142 8.64702 98.8484 8.61511 98.6718 8.61511C98.4931 8.61511 98.3268 8.64625 98.1719 8.7093C98.017 8.7723 97.8794 8.8658 97.7597 8.98822C97.6351 9.11427 97.5392 9.25666 97.4731 9.41613C97.4065 9.57559 97.3729 9.74103 97.3729 9.91306C97.3729 10.0859 97.4054 10.2506 97.4715 10.407C97.5376 10.5643 97.6318 10.7045 97.7548 10.8276C97.8794 10.9522 98.0197 11.0471 98.1762 11.1131C98.3327 11.1791 98.4974 11.2118 98.6718 11.2118C98.8441 11.2118 99.0093 11.1784 99.1675 11.1117C99.3262 11.0456 99.4692 10.9493 99.5965 10.8232C99.7189 10.703 99.8126 10.5658 99.8754 10.4115C99.9388 10.2572 99.9697 10.0918 99.9697 9.91306ZM98.6675 8.28064C98.8912 8.28064 99.1035 8.32142 99.3023 8.40224C99.5011 8.48305 99.6783 8.60174 99.8332 8.75676C99.9838 8.90881 100.1 9.08458 100.182 9.28413C100.263 9.48439 100.304 9.69427 100.304 9.91457C100.304 10.1378 100.264 10.3462 100.184 10.5413C100.103 10.7364 99.987 10.9085 99.8332 11.0575C99.6723 11.214 99.4914 11.3342 99.2904 11.4195C99.0895 11.504 98.8809 11.5463 98.6675 11.5463C98.4514 11.5463 98.2461 11.5047 98.05 11.4225C97.855 11.3401 97.6784 11.2199 97.5208 11.062C97.3642 10.907 97.2445 10.7304 97.1622 10.5339C97.0799 10.3366 97.0387 10.1304 97.0387 9.91457C97.0387 9.69579 97.0799 9.48661 97.1633 9.2863C97.2467 9.08686 97.367 8.90735 97.5251 8.74789C97.6741 8.59584 97.8463 8.48013 98.0419 8.40002C98.2369 8.32067 98.4454 8.28064 98.6675 8.28064Z" fill="white"/>
</g>
<defs>
<clipPath id="clip0_106_58">
<rect width="108.333" height="65" fill="white"/>
</clipPath>
</defs>
</svg>
