<svg width="65" height="65" viewBox="0 0 65 65" fill="none" xmlns="http://www.w3.org/2000/svg">
<g opacity="0.7" clip-path="url(#clip0_106_17)">
<path fill-rule="evenodd" clip-rule="evenodd" d="M32.4999 65C14.5793 65 0 50.4205 0 32.5001C0 14.5794 14.5793 0 32.4999 0C50.4203 0 64.9999 14.5794 64.9999 32.5001C64.9999 50.4205 50.4204 65 32.4999 65ZM38.0008 19.9293H19.6335L16.8467 24.4078H35.1929L38.0008 19.9293ZM41.7544 19.972L30.526 37.8511H18.0712L20.9446 33.3687H28.4095L31.2611 28.8885H14.0035L11.1525 33.3687H15.2408L9.56853 42.3179H33.2408L41.9843 28.5291L45.1723 33.3687H42.2977L39.5754 37.8511H48.0879L51.0437 42.3179H56.4739L41.7544 19.972Z" fill="white"/>
</g>
<defs>
<clipPath id="clip0_106_17">
<rect width="64.9999" height="65" fill="white"/>
</clipPath>
</defs>
</svg>
