<svg width="57" height="65" viewBox="0 0 57 65" fill="none" xmlns="http://www.w3.org/2000/svg">
<g opacity="0.7" clip-path="url(#clip0_106_32)">
<mask id="mask0_106_32" style="mask-type:luminance" maskUnits="userSpaceOnUse" x="-25" y="-14" width="105" height="93">
<path d="M-24.0665 -13.1506H79.7982V78.1221H-24.0665V-13.1506Z" fill="white"/>
</mask>
<g mask="url(#mask0_106_32)">
<path fill-rule="evenodd" clip-rule="evenodd" d="M50.928 -3.8147e-05H5.08683C1.37125 -3.8147e-05 0 1.37121 0 5.08853V49.9438C0 50.3644 0.0169639 50.7552 0.0541244 51.1172C0.138716 51.9286 0.154643 52.7149 0.909277 53.6101C0.983021 53.6978 1.75347 54.2711 1.75347 54.2711C2.16789 54.4743 2.45086 54.624 2.91825 54.8121L25.4911 64.2694C26.6629 64.8066 27.1529 65.0159 28.004 64.9991V64.9992C28.0052 64.9992 28.0062 64.9992 28.0073 64.9992C28.0085 64.9992 28.0095 64.9992 28.0107 64.9992V64.9991C28.8618 65.0159 29.3518 64.8066 30.5238 64.2694L53.0964 54.8121C53.5639 54.624 53.8468 54.4743 54.2613 54.2711C54.2613 54.2711 55.0318 53.6978 55.1054 53.6101C55.86 52.7149 55.876 51.9286 55.9606 51.1172C55.9977 50.7552 56.0148 50.3644 56.0148 49.9438V5.08853C56.0148 1.37121 54.6434 -3.8147e-05 50.928 -3.8147e-05Z" fill="black"/>
<path d="M47.8576 45.0961L47.8472 45.1996L47.8369 45.3133L47.8161 45.4168L47.7852 45.5202L47.7651 45.6133L47.734 45.7169L47.6926 45.81L47.6512 45.8929L47.6105 45.9859L47.5588 46.0686L47.5071 46.1515L47.4456 46.2342L47.3937 46.317L47.3324 46.3893L47.2599 46.4618L47.1984 46.5239L47.1157 46.5964L47.0438 46.6585L46.9611 46.7205L46.8789 46.7716L46.7968 46.8336L46.7036 46.8853L46.6111 46.9268L46.5186 46.9785L46.4151 47.0199L46.3123 47.0613L46.2095 47.0923L46.1066 47.1234L46.0135 47.1544L45.9107 47.1751L45.8181 47.1958L45.7257 47.2164L45.6222 47.2372L45.5192 47.2475L45.4268 47.2579L45.3233 47.2683L45.2102 47.2786L45.1072 47.2889H45.0044H44.8912H44.7774H44.6746L44.5716 47.2786H44.4585L44.3556 47.2683L44.2522 47.2579L44.139 47.2475L44.0361 47.2268L43.9333 47.2164L43.8298 47.1958L43.7269 47.1751L43.624 47.1544L43.5212 47.1337L43.4178 47.1028L43.3252 47.082L43.2224 47.0509L43.1195 47.0199L43.0265 46.9785L42.9236 46.9474L42.8311 46.9165L42.7281 46.8751L42.6351 46.8336L42.5426 46.7922L42.45 46.7412L42.357 46.6998L42.2644 46.648L42.1823 46.5964L42.0891 46.5445L42.007 46.4928L41.9242 46.4411L41.8421 46.3791L41.7599 46.317L41.6771 46.2549L41.5949 46.1928L41.5225 46.1307L41.4403 46.0583L41.5024 45.9756L41.5742 45.9031L41.6363 45.8203L41.7082 45.7375L41.7703 45.6652L41.8317 45.5824L41.9042 45.4996L41.9655 45.4272L42.038 45.3445L42.0995 45.272L42.1719 45.1892L42.2334 45.1064L42.2955 45.034L42.3673 44.9513L42.4294 44.8684L42.5011 44.796L42.5632 44.7133L42.6454 44.7754L42.738 44.8375L42.8207 44.8996L42.9133 44.9617L42.996 45.0134L43.0886 45.0753L43.1706 45.1271L43.2639 45.1685L43.3459 45.2203L43.4385 45.2617L43.5316 45.303L43.624 45.3445L43.7167 45.3755L43.8097 45.4168L43.9125 45.4479L44.0155 45.4789L44.1079 45.5099L44.2114 45.5307L44.3143 45.5514L44.4171 45.572L44.5303 45.5824L44.6337 45.6031H44.7367L44.8498 45.6133H44.9527H45.0762L45.1894 45.6031L45.2929 45.5824L45.3853 45.5616L45.4779 45.541L45.5606 45.5099L45.6325 45.4686L45.7153 45.4065L45.7767 45.3341L45.8181 45.2512L45.8493 45.1582L45.8594 45.0547V45.034L45.8493 44.9098L45.8078 44.8063L45.756 44.734L45.6842 44.6719L45.6014 44.6098L45.5192 44.5685L45.4268 44.527L45.3233 44.4856L45.1998 44.434L45.1279 44.4132L45.0458 44.3926L44.9527 44.3614L44.8601 44.3408L44.7573 44.3097L44.6538 44.2891L44.5407 44.258L44.4378 44.2374L44.3245 44.2063L44.2217 44.1857L44.1182 44.1546L44.0155 44.1338L43.9125 44.1028L43.8194 44.0719L43.7167 44.0511L43.624 44.0201L43.5316 43.989L43.4385 43.958L43.3252 43.9165L43.2224 43.8751L43.1195 43.8338L43.0161 43.7924L42.9236 43.7407L42.8207 43.689L42.738 43.6373L42.6454 43.5856L42.5632 43.5235L42.4805 43.4718L42.4087 43.4096L42.3363 43.3372L42.2644 43.2647L42.2024 43.1923L42.141 43.1199L42.0891 43.0475L42.038 42.9647L41.9863 42.8717L41.9449 42.7999L41.9138 42.717L41.8835 42.6239L41.8524 42.5411L41.8317 42.4376L41.811 42.3445L41.8006 42.2411L41.7904 42.1376L41.78 42.0239V41.91V41.8893V41.7858L41.7904 41.6824L41.8006 41.5893L41.811 41.4858L41.8317 41.3927L41.8524 41.2996L41.8835 41.2064L41.9042 41.1133L41.9449 41.0202L41.9863 40.9271L42.0276 40.8341L42.0789 40.7408L42.1305 40.6478L42.192 40.5649L42.2542 40.4822L42.326 40.3995L42.3983 40.3271L42.4702 40.2442L42.553 40.1718L42.6247 40.1201L42.7075 40.058L42.7898 39.9959L42.8718 39.9442L42.965 39.8925L43.0575 39.851L43.15 39.7993L43.2431 39.758L43.3459 39.7269L43.4487 39.6856L43.5419 39.6545L43.624 39.6337L43.7167 39.6131L43.8097 39.5924L43.9125 39.5718L44.0051 39.551L44.1079 39.5407L44.2114 39.5303L44.3143 39.5199L44.4171 39.5097H44.5199H44.6337H44.747H44.8601L44.9734 39.5199L45.0866 39.5303H45.1894L45.3032 39.5407L45.406 39.5614L45.5192 39.5718L45.6222 39.5924L45.7153 39.6131L45.8181 39.6337L45.9209 39.6545L46.0135 39.6752L46.1169 39.7062L46.2095 39.7373L46.302 39.758L46.4054 39.7993L46.498 39.8304L46.5904 39.8717L46.683 39.9131L46.7864 39.9546L46.8789 40.0063L46.9611 40.0477L47.0542 40.0994L47.1468 40.1511L47.229 40.2029L47.322 40.265L47.4042 40.3166L47.487 40.3788L47.5692 40.4409L47.6512 40.5029L47.5898 40.5857L47.5381 40.6685L47.4766 40.7512L47.4145 40.8341L47.3531 40.9271L47.3013 41.0098L47.2392 41.0927L47.1777 41.1754L47.1261 41.2582L47.0645 41.341L47.0025 41.4238L46.9507 41.5065L46.8893 41.5997L46.8271 41.6824L46.7657 41.7652L46.714 41.8479L46.6525 41.9306L46.5698 41.8687L46.4773 41.8169L46.395 41.7652L46.3123 41.7031L46.2198 41.6618L46.137 41.6099L46.0445 41.5685L45.9624 41.5272L45.8692 41.4858L45.7871 41.4444L45.6946 41.4134L45.6119 41.372L45.4986 41.341L45.3957 41.3099L45.2929 41.279L45.1894 41.2582L45.0866 41.2375L44.9837 41.2168L44.8809 41.2064L44.7774 41.1961L44.685 41.1857H44.582H44.4585L44.3453 41.2064L44.2418 41.2271L44.1494 41.2478L44.0672 41.2892L43.9947 41.3305L43.9022 41.4134L43.8401 41.5065L43.7994 41.5997L43.7889 41.7031V41.7238L43.7994 41.8583L43.8505 41.9721L43.8919 42.0342L43.9637 42.1066L44.0568 42.1583L44.139 42.21L44.2418 42.2515L44.3556 42.2929L44.4792 42.3342L44.5614 42.3549L44.6435 42.3859L44.7367 42.4066L44.8291 42.4376L44.9319 42.4584L45.0458 42.4894L45.159 42.5204L45.2723 42.5515L45.3853 42.5722L45.4882 42.6032L45.6014 42.6343L45.7049 42.6549L45.8078 42.686L45.9107 42.717L46.0031 42.7481L46.1066 42.7791L46.1992 42.8102L46.2916 42.8412L46.4054 42.8819L46.5082 42.9338L46.6111 42.9751L46.714 43.0268L46.8071 43.0786L46.8997 43.1303L46.9818 43.182L47.0645 43.2441L47.1468 43.2958L47.229 43.3683L47.3117 43.4406L47.3835 43.5235L47.4558 43.5958L47.5173 43.6787L47.5794 43.7717L47.6306 43.8545L47.6824 43.9477L47.7237 44.0304L47.7547 44.1235L47.7852 44.2166L47.8059 44.3097L47.8265 44.4132L47.8472 44.5168L47.8576 44.6202L47.8679 44.734V44.8477V44.8684V44.9823L47.8576 45.0961ZM40.6339 47.1649H40.5305H40.4277H40.3248H40.222H40.1185H40.0155H39.9128H39.8099H39.6961H39.5933H39.4904H39.3876H39.284H39.1813H39.0783H38.9755H38.872H38.7692H38.6663H38.5635H38.4606H38.3572H38.2543H38.1515H38.0486H37.9451H37.8422H37.7394H37.6262H37.5228H37.4198H37.317H37.2142H37.1108H37.0079H36.905H36.8021H36.6987H36.5959H36.493H36.3901H36.2866H36.1839H36.0809H35.9781H35.8747H35.7717H35.6585H35.5557H35.4529H35.3494H35.2465H35.1436H35.0409H34.9375H34.8345H34.7317V47.0613V46.9578V46.8544V46.7515V46.648V46.5445V46.4411V46.3377V46.2342V46.1307V46.0273V45.9238V45.8203V45.7169V45.6133V45.5099V45.4065V45.303V45.2099V45.1064V45.003V44.8996V44.796V44.6925V44.5891V44.4856V44.3821V44.2787V44.1753V44.0719V43.9684V43.8648V43.7614V43.6579V43.5544V43.451V43.3475V43.2441V43.1407V43.0372V42.9338V42.8308V42.7274V42.6239V42.5204V42.417V42.3136V42.21V42.1066V42.0031V41.8996V41.7962V41.6927V41.5893V41.4961V41.3927V41.2892V41.1857V41.0823V40.9788V40.8754V40.7719V40.6685V40.5649V40.4615V40.358V40.2545V40.1511V40.0477V39.9442V39.8408V39.7373V39.6337H34.8345H34.9375H35.0409H35.1436H35.2465H35.3494H35.4529H35.5557H35.6585H35.7615H35.8649H35.9678H36.0705H36.1735H36.2665H36.3694H36.4723H36.5752H36.6786H36.7814H36.8843H36.9872H37.0906H37.1934H37.2963H37.3992H37.5027H37.6055H37.7084H37.8112H37.9147H38.0176H38.1204H38.2232H38.3261H38.4296H38.5325H38.6353H38.7381H38.8416H38.9445H39.0473H39.1501H39.2434H39.3462H39.449H39.552H39.6554H39.7582H39.861H39.9638H40.0674H40.1702H40.273H40.376H40.4794H40.5823H40.6851V39.7373V39.8304V39.9338V40.0373V40.1407V40.2338V40.3374V40.4409V40.5339V40.6374V40.7408V40.8341V40.9375V41.0409V41.1444V41.2375V41.341H40.5823H40.4794H40.376H40.273H40.1702H40.0674H39.9742H39.8714H39.7686H39.6656H39.5622H39.4594H39.3565H39.2536H39.1501H39.0473H38.9445H38.8416H38.7381H38.6457H38.5427H38.4399H38.3364H38.2337H38.1307H38.0279H37.9244H37.8216H37.7188H37.6159H37.5124H37.4095H37.317H37.2142H37.1108H37.0079H36.905H36.8021H36.6987V41.4444V41.5478V41.6513V41.7548V41.8583V41.9514V42.0548V42.1583V42.2617V42.3653V42.4687V42.5722H36.8021H36.905H37.0079H37.1108H37.2142H37.317H37.4198H37.5228H37.6159H37.7188H37.8216H37.9244H38.0279H38.1307H38.2337H38.3364H38.4399H38.5427H38.6457H38.7485H38.8519H38.9547H39.0577H39.1606H39.264H39.3669H39.4594H39.5622H39.6656H39.7686H39.8714H39.9742H40.0776H40.1806H40.2834V42.6756V42.7687V42.8717V42.9751V43.0682V43.1716V43.2751V43.3683V43.4718V43.5752V43.6787V43.7717V43.8751V43.9786V44.0719V44.1753H40.1806H40.0776H39.9742H39.8714H39.7686H39.6656H39.5622H39.4594H39.3669H39.264H39.1606H39.0577H38.9547H38.8519H38.7485H38.6457H38.5427H38.4399H38.3364H38.2337H38.1307H38.0279H37.9244H37.8216H37.7188H37.6159H37.5228H37.4198H37.317H37.2142H37.1108H37.0079H36.905H36.8021H36.6987V44.2787V44.3926V44.496V44.5995V44.7133V44.8168V44.9202V45.034V45.1374V45.2409V45.3547V45.4581H36.8021H36.905H37.0079H37.1108H37.2142H37.317H37.4198H37.5228H37.6262H37.7394H37.8422H37.9451H38.0486H38.1515H38.2543H38.3572H38.4606H38.5635H38.6663H38.7692H38.872H38.9755H39.0783H39.1813H39.284H39.3876H39.4904H39.5933H39.6961H39.8099H39.9128H40.0155H40.1185H40.222H40.3248H40.4277H40.5305H40.6339H40.7368V45.5616V45.6548V45.7583V45.8617V45.9652V46.0583V46.1617V46.2652V46.3584V46.4618V46.5652V46.6585V46.7613V46.8647V46.9681V47.0613V47.1649H40.6339ZM33.1078 47.1649H33.005H32.9021H32.7884H32.6856H32.5826H32.4798H32.3763H32.2735H32.1603H32.0574H31.9545H31.8511H31.7483H31.6454H31.5322H31.4287H31.3259H31.2229V47.0613V46.9578V46.8544V46.7509V46.6468V46.5434V46.4399V46.3364V46.233V46.1296V46.026V45.9221V45.8185V45.715V45.6116V45.5081V45.404V45.3005V45.1971V45.0937V44.9902V44.8868V44.7827V44.6793V44.5757V44.4722V44.3688V44.2653V44.1612V44.0577V43.9543V43.8509V43.7475V43.644V43.5399V43.4365V43.3329V43.2295V43.126V43.0219V42.9185V42.815V42.7115L31.1714 42.7942L31.1098 42.8881L31.058 42.9708L30.9966 43.0537L30.9449 43.1467L30.8827 43.2295L30.8317 43.3123L30.7799 43.406L30.7185 43.4887L30.6667 43.5715L30.6047 43.6543L30.5536 43.748L30.4915 43.8308L30.4404 43.9135L30.3886 44.0067L30.3265 44.09L30.2753 44.1729L30.2133 44.2659L30.1622 44.3487L30.1002 44.4315L30.049 44.5252L29.9972 44.608L29.9352 44.6908L29.8841 44.7839L29.822 44.8672L29.7709 44.95L29.7088 45.0329L29.657 45.1259L29.6059 45.2092L29.5439 45.2921L29.4928 45.3852L29.4307 45.4679L29.379 45.5507L29.3175 45.6445L29.2658 45.7272H29.2249L29.163 45.6341L29.1111 45.5507L29.0496 45.4575L28.9979 45.3748L28.9364 45.2818L28.8847 45.1983L28.8233 45.1052L28.7715 45.0224L28.7094 44.9293L28.6583 44.8466L28.5962 44.7528L28.5452 44.67L28.4831 44.5769L28.4313 44.4941L28.3699 44.4004L28.3181 44.3177L28.2567 44.2246L28.1946 44.1418L28.1429 44.0481L28.0814 43.9654L28.0297 43.8722L27.9682 43.7895L27.9165 43.6957L27.855 43.6129L27.8032 43.5198L27.7412 43.437L27.69 43.3439L27.6279 43.2605L27.5768 43.1674L27.5147 43.0846L27.463 42.9915L27.4016 42.9088L27.3497 42.815L27.2883 42.7323V42.8357V42.9392V43.0427V43.1467V43.2502V43.3536V43.4571V43.5606V43.6646V43.7681V43.8613V43.9647V44.0682V44.1716V44.2757V44.3792V44.4826V44.586V44.6895V44.793V44.897V45.0005V45.1041V45.2075V45.311V45.4144V45.5185V45.6219V45.7254V45.8288V45.9323V46.0363V46.1296V46.233V46.3364V46.4399V46.5434V46.6468V46.7509V46.8544V46.9578V47.0613V47.1649H27.1855H27.0821H26.9791H26.8763H26.7735H26.6701H26.5671H26.4643H26.3614H26.258H26.1551H26.0522H25.9494H25.846H25.7432H25.6402H25.5373H25.4339H25.331V47.0613V46.9578V46.8544V46.7515V46.648V46.5445V46.4411V46.3377V46.2342V46.1307V46.0273V45.9238V45.8203V45.7169V45.6133V45.5099V45.4065V45.303V45.2099V45.1064V45.003V44.8996V44.796V44.6925V44.5891V44.4856V44.3821V44.2787V44.1753V44.0719V43.9684V43.8648V43.7614V43.6579V43.5544V43.451V43.3475V43.2441V43.1407V43.0372V42.9338V42.8308V42.7274V42.6239V42.5204V42.417V42.3136V42.21V42.1066V42.0031V41.8996V41.7962V41.6927V41.5893V41.4961V41.3927V41.2892V41.1857V41.0823V40.9788V40.8754V40.7719V40.6685V40.5649V40.4615V40.358V40.2545V40.1511V40.0477V39.9442V39.8408V39.7373V39.6337H25.4339H25.5373H25.6299H25.7326H25.8356H25.939H26.0315H26.1344H26.2379H26.3407H26.4333H26.5361H26.6396H26.7424H26.8349H26.9377H27.0412H27.1442H27.2366H27.3394H27.443L27.4941 39.7166L27.5458 39.8096L27.6072 39.8918L27.659 39.9849L27.7107 40.0677L27.7618 40.1609L27.8135 40.243L27.8751 40.3362L27.9267 40.419L27.9785 40.5017L28.0297 40.5941L28.0814 40.677L28.1429 40.77L28.1946 40.8529L28.2463 40.9453L28.2974 41.0281L28.3595 41.1108L28.4113 41.2035L28.4623 41.2861L28.514 41.3792L28.5653 41.4621L28.6274 41.5545L28.6791 41.6374L28.7301 41.7304L28.7819 41.8126L28.833 41.8953L28.8951 41.9885L28.9468 42.0713L28.9979 42.1645L29.0496 42.2466L29.1007 42.3398L29.163 42.4225L29.2147 42.5149L29.2658 42.5978L29.3175 42.5149L29.3692 42.4225L29.4307 42.3398L29.4823 42.2466L29.5335 42.1645L29.5852 42.0713L29.6467 41.9885L29.6984 41.8953L29.7503 41.8126L29.8013 41.7304L29.8633 41.6374L29.9145 41.5545L29.9663 41.4621L30.0179 41.3792L30.0794 41.2861L30.1311 41.2035L30.1829 41.1108L30.2339 41.0281L30.2858 40.9453L30.3472 40.8529L30.3989 40.77L30.4506 40.677L30.5019 40.5941L30.5639 40.5017L30.6151 40.419L30.6667 40.3362L30.7185 40.243L30.7799 40.1609L30.8317 40.0677L30.8827 39.9849L30.9345 39.8918L30.9966 39.8096L31.0478 39.7166L31.0995 39.6337H31.2023H31.3052H31.3982H31.5012H31.604H31.7068H31.8H31.9029H32.0056H32.1086H32.2017H32.3045H32.4073H32.5103H32.6033H32.7062H32.8091H32.9119H33.005H33.1078H33.2107V39.7373V39.8408V39.9442V40.0477V40.1511V40.2545V40.358V40.4615V40.5649V40.6685V40.7719V40.8754V40.9788V41.0823V41.1857V41.2892V41.3927V41.4961V41.5893V41.6927V41.7962V41.8996V42.0031V42.1066V42.21V42.3136V42.417V42.5204V42.6239V42.7274V42.8308V42.9338V43.0372V43.1407V43.2441V43.3475V43.451V43.5544V43.6579V43.7614V43.8648V43.9684V44.0719V44.1753V44.2787V44.3821V44.4856V44.5891V44.6925V44.796V44.8996V45.003V45.1064V45.2099V45.303V45.4065V45.5099V45.6133V45.7169V45.8203V45.9238V46.0273V46.1307V46.2342V46.3377V46.4411V46.5445V46.648V46.7515V46.8544V46.9578V47.0613V47.1649H33.1078ZM21.1566 44.0615L21.1256 43.9678L21.0848 43.8643L21.0434 43.7711L21.0123 43.6774L20.9716 43.5843L20.9303 43.4808L20.8991 43.3871L20.8577 43.2939L20.8171 43.2009L20.7859 43.1072L20.7445 43.0037L20.7141 42.9106L20.6727 42.8168L20.6313 42.7237L20.6003 42.6306L20.5595 42.5266L20.5182 42.4334L20.4871 42.3403L20.4457 42.2466L20.405 42.1431L20.3739 42.0494L20.3325 41.9563L20.2918 42.0494L20.2608 42.1431L20.2194 42.2466L20.178 42.3403L20.1475 42.4334L20.1062 42.5266L20.0648 42.6306L20.024 42.7237L19.9929 42.8168L19.9515 42.9106L19.9101 43.0037L19.8796 43.1072L19.8383 43.2009L19.7969 43.2939L19.766 43.3871L19.7251 43.4808L19.6837 43.5843L19.6424 43.6774L19.612 43.7711L19.5706 43.8643L19.5292 43.9678L19.4981 44.0615L19.4574 44.1546H19.5602H19.663H19.766H19.8694H19.9722H20.075H20.178H20.2815H20.3739H20.4767H20.5803H20.6831H20.7859H20.8889H20.9917H21.0951H21.1979L21.1566 44.0615ZM24.3914 47.1649H24.288H24.1953H24.0926H23.9891H23.8863H23.7833H23.6909H23.5874H23.4846H23.3817H23.2788H23.1754H23.0828H22.98H22.8771H22.7737H22.6708H22.5783H22.4755H22.372L22.3312 47.0716L22.3002 46.9785L22.2588 46.8853L22.2174 46.7819L22.1869 46.6894L22.1456 46.5964L22.1042 46.5032L22.0737 46.4101L22.0324 46.317L21.991 46.2238L21.9601 46.1307L21.9192 46.0273L21.8778 45.9342L21.8467 45.841L21.8053 45.7479H21.7025H21.5996H21.4968H21.394H21.3009H21.1979H21.0951H20.9917H20.8889H20.7859H20.6831H20.5803H20.4767H20.3739H20.2815H20.178H20.075H19.9722H19.8694H19.766H19.663H19.5602H19.4574H19.3545H19.2613H19.1586H19.0556H18.9521H18.8493L18.8086 45.841L18.7775 45.9342L18.7361 46.0273L18.6948 46.1307L18.6643 46.2238L18.623 46.317L18.5816 46.4101L18.5505 46.5032L18.5098 46.5964L18.4684 46.6894L18.4373 46.7819L18.3965 46.8853L18.3551 46.9785L18.3241 47.0716L18.2827 47.1649H18.1798H18.077H17.9742H17.8707H17.7678H17.6546H17.5518H17.4489H17.3455H17.2426H17.1398H17.0369H16.9333H16.8306H16.7278H16.6146H16.5111H16.4083H16.3053H16.2025L16.2432 47.0716L16.2847 46.9785L16.326 46.8853L16.3668 46.7819L16.3979 46.6894L16.4393 46.5964L16.4806 46.5032L16.5213 46.4101L16.5628 46.317L16.6042 46.2135L16.6449 46.1203L16.6864 46.0273L16.7173 45.9342L16.7587 45.841L16.7995 45.7479L16.8409 45.6445L16.8822 45.5514L16.9231 45.4581L16.9645 45.3651L17.0058 45.272L17.0369 45.1788L17.0776 45.0753L17.119 44.9823L17.1605 44.8892L17.2012 44.796L17.2426 44.7029L17.2841 44.6098L17.3248 44.5063L17.3558 44.4132L17.3973 44.3201L17.4386 44.227L17.4794 44.1338L17.5208 44.0407L17.5621 43.9373L17.6029 43.8442L17.6442 43.7511L17.6753 43.6579L17.7167 43.5649L17.7575 43.4718L17.7989 43.3683L17.8403 43.2751L17.8811 43.182L17.9224 43.0889L17.9638 42.9958L17.9948 42.9026L18.0357 42.8102L18.077 42.7066L18.1183 42.6136L18.1592 42.5204L18.2005 42.4272L18.2419 42.3342L18.2827 42.2411L18.3137 42.1376L18.3551 42.0446L18.3965 41.9514L18.4373 41.8583L18.4787 41.7652L18.5201 41.672L18.5609 41.5685L18.6022 41.4755L18.6333 41.3824L18.6746 41.2892L18.7154 41.1961L18.7567 41.103L18.7982 40.9996L18.8389 40.9064L18.8803 40.8133L18.9218 40.7202L18.9521 40.6271L18.9936 40.5339L19.035 40.4305L19.0764 40.3374L19.1172 40.2442L19.1586 40.1511L19.1999 40.058L19.2406 39.965L19.2718 39.8614L19.3131 39.7683L19.3545 39.6752L19.3953 39.582H19.4981H19.5912H19.6941H19.7969H19.9004H19.9929H20.0957H20.1986H20.3021H20.3947H20.4974H20.6003H20.7038H20.7963H20.8991H21.002H21.1055H21.1979H21.3009L21.3422 39.6752L21.3836 39.7683L21.4245 39.8614L21.4658 39.965L21.4968 40.058L21.5376 40.1511L21.579 40.2442L21.6203 40.3374L21.6617 40.4305L21.7025 40.5339L21.7439 40.6271L21.7853 40.7202L21.8157 40.8133L21.8571 40.9064L21.8985 40.9996L21.94 41.103L21.9807 41.1961L22.022 41.2892L22.0635 41.3824L22.1042 41.4755L22.1352 41.5685L22.1766 41.672L22.2174 41.7652L22.2588 41.8583L22.3002 41.9514L22.3416 42.0446L22.3823 42.1376L22.4236 42.2411L22.4548 42.3342L22.4955 42.4272L22.5368 42.5204L22.5783 42.6136L22.6197 42.7066L22.6604 42.8102L22.7019 42.9026L22.7432 42.9958L22.7737 43.0889L22.815 43.182L22.8564 43.2751L22.8973 43.3683L22.9386 43.4718L22.98 43.5649L23.0214 43.6579L23.0622 43.7511L23.0932 43.8442L23.1345 43.9373L23.1754 44.0407L23.2167 44.1338L23.2581 44.227L23.2994 44.3201L23.3403 44.4132L23.3817 44.5063L23.4127 44.6098L23.4535 44.7029L23.4948 44.796L23.5363 44.8892L23.577 44.9823L23.6184 45.0753L23.6599 45.1788L23.7013 45.272L23.7316 45.3651L23.7731 45.4581L23.8145 45.5514L23.8552 45.6445L23.8966 45.7479L23.938 45.841L23.9793 45.9342L24.02 46.0273L24.0512 46.1203L24.0926 46.2135L24.1334 46.317L24.1747 46.4101L24.216 46.5032L24.2568 46.5964L24.2982 46.6894L24.3396 46.7819L24.3708 46.8853L24.4114 46.9785L24.4528 47.0716L24.4941 47.1649H24.3914ZM15.3675 46.2031L15.2848 46.2652L15.2129 46.317L15.1301 46.3791L15.048 46.4308L14.9658 46.4928L14.8831 46.5445L14.8009 46.5964L14.7078 46.648L14.6152 46.6998L14.5226 46.7515L14.4296 46.7922L14.3371 46.844L14.2342 46.8853L14.1418 46.9268L14.0383 46.9681L13.9459 47.0095L13.8532 47.0406L13.7602 47.0716L13.6676 47.1028L13.5648 47.1337L13.4723 47.1649L13.3688 47.1855L13.2763 47.2062L13.1734 47.2268L13.07 47.2475L12.9671 47.2579L12.8539 47.2683L12.7511 47.2786L12.6378 47.2889L12.5343 47.2993L12.4212 47.3096H12.308H12.1947H12.0816H11.9781L11.8753 47.2993L11.762 47.2889L11.6592 47.2786L11.5564 47.2683L11.4529 47.2579L11.35 47.2372L11.2471 47.2164L11.1547 47.1958L11.0513 47.1751L10.9587 47.1441L10.8559 47.1234L10.7627 47.0923L10.6702 47.0509L10.5776 47.0199L10.4749 46.9785L10.3818 46.9372L10.2892 46.8958L10.1968 46.8544L10.1036 46.8027L10.0215 46.7515L9.92894 46.6998L9.8462 46.648L9.76403 46.5964L9.68128 46.5342L9.59911 46.4722L9.51683 46.4101L9.44447 46.348L9.37269 46.2859L9.30021 46.2135L9.22843 46.1515L9.15596 46.079L9.08418 46.0065L9.02209 45.9342L8.96058 45.8514L8.89849 45.779L8.84679 45.6962L8.78528 45.6133L8.73369 45.5307L8.68245 45.4479L8.63075 45.3547L8.57905 45.272L8.53831 45.1788L8.49688 45.0857L8.45556 44.9926L8.41471 44.8996L8.38367 44.8168L8.34224 44.7236L8.32158 44.6304L8.29111 44.5374L8.27045 44.434L8.23941 44.3408L8.21875 44.2374L8.20837 44.1442L8.18759 44.0407L8.17744 43.9477L8.16693 43.8442L8.15724 43.7407L8.14697 43.6373V43.5235V43.42V43.3993V43.2958L8.15724 43.182V43.0786L8.16693 42.9751L8.17744 42.8613L8.1981 42.7585L8.20837 42.6549L8.22903 42.5618L8.26007 42.4584L8.28084 42.3549L8.31119 42.2617L8.34224 42.1583L8.37328 42.0652L8.41471 41.9617L8.45556 41.8687L8.49688 41.7755L8.53831 41.6824L8.57905 41.5893L8.63075 41.4961L8.68245 41.4134L8.73369 41.3305L8.78528 41.2478L8.83709 41.1651L8.89849 41.0823L8.96058 40.9996L9.02209 40.9168L9.08418 40.8442L9.15596 40.7719L9.21805 40.6994L9.28995 40.6271L9.3623 40.5546L9.43409 40.4926L9.51683 40.4201L9.58873 40.358L9.6709 40.2959L9.75364 40.2442L9.83581 40.1821L9.91867 40.1304L10.0007 40.0787L10.0933 40.0269L10.1864 39.9752L10.2789 39.9235L10.3714 39.8821L10.4644 39.8408L10.5674 39.789L10.6495 39.758L10.7524 39.7269L10.8456 39.6856L10.938 39.6648L11.0305 39.6337L11.1339 39.6131L11.2264 39.582L11.3293 39.5614L11.4322 39.551L11.5356 39.5303L11.6386 39.5199L11.7413 39.5097L11.8442 39.4993L11.9477 39.4889H12.0609H12.1638H12.2769H12.3901L12.504 39.4993L12.6172 39.5097H12.72L12.8228 39.5199L12.9361 39.5407L13.0292 39.551L13.132 39.5718L13.235 39.5924L13.328 39.6131L13.4204 39.6337L13.5131 39.6545L13.6062 39.6856L13.6987 39.7062L13.7808 39.7373L13.874 39.7683L13.9665 39.8096L14.059 39.851L14.1521 39.8925L14.2446 39.9442L14.3371 39.9856L14.4199 40.0373L14.5124 40.089L14.5945 40.1407L14.6877 40.1925L14.7698 40.2545L14.852 40.3063L14.9348 40.3684L15.0169 40.4305L15.0997 40.5029L15.1818 40.5649L15.1198 40.6478L15.048 40.7202L14.9859 40.8029L14.9141 40.8857L14.852 40.9685L14.7905 41.0409L14.718 41.1236L14.6566 41.2064L14.5945 41.279L14.5226 41.3617L14.4607 41.4444L14.3888 41.5272L14.3267 41.5997L14.2653 41.6824L14.1929 41.7652L14.1313 41.8479L14.059 41.9204L13.9974 42.0031L13.9147 41.941L13.8325 41.8687L13.7498 41.8169L13.6676 41.7548L13.5854 41.7031L13.5027 41.6513L13.4204 41.5997L13.328 41.5478L13.2452 41.5065L13.1631 41.4651L13.0803 41.4341L12.9878 41.403L12.8953 41.372L12.8022 41.3513L12.6994 41.3305L12.5965 41.3099L12.4936 41.2996L12.3804 41.2892L12.2666 41.279H12.1534H12.0506L11.9477 41.2892L11.8546 41.2996L11.7518 41.3203L11.6592 41.341L11.5661 41.372L11.4736 41.403L11.3811 41.4444L11.2885 41.4858L11.2058 41.5375L11.1237 41.5893L11.0409 41.6411L10.9691 41.7031L10.8966 41.7652L10.8248 41.8272L10.7627 41.8996L10.691 41.9721L10.6289 42.0548L10.5776 42.1273L10.5259 42.21L10.4749 42.3032L10.4231 42.3859L10.3818 42.4791L10.3507 42.5722L10.3099 42.6653L10.2789 42.7687L10.2582 42.8717L10.2375 42.9647L10.2168 43.0786L10.2065 43.182L10.1968 43.2854V43.3993V43.42V43.5235L10.2065 43.6269L10.2168 43.72L10.2272 43.8235L10.2478 43.9165L10.2686 44.0098L10.2892 44.1028L10.3203 44.1959L10.3507 44.2787L10.3922 44.3821L10.4335 44.4753L10.4846 44.5685L10.5363 44.6512L10.588 44.734L10.6495 44.8168L10.7116 44.8892L10.7834 44.9617L10.8456 45.034L10.9173 45.0961L11.0001 45.1582L11.0823 45.2203L11.1644 45.272L11.2471 45.3237L11.3398 45.3651L11.4322 45.4065L11.5252 45.4479L11.6282 45.4789L11.731 45.5099L11.8345 45.5307L11.9373 45.5514L12.0402 45.5616L12.1534 45.572H12.2666H12.3901L12.504 45.5616L12.6172 45.5514L12.72 45.541L12.8228 45.5202L12.9264 45.4996L13.0292 45.4686L13.1216 45.4479L13.2143 45.4065L13.297 45.3651L13.3895 45.3237L13.4618 45.2824L13.5441 45.2305V45.1271V45.0237V44.9202V44.8168V44.7029V44.5995V44.496V44.3926V44.2891H13.4412H13.3482H13.2452H13.1424H13.0396H12.9464H12.8435H12.7407H12.6378H12.5448H12.4419H12.3391H12.2361H12.1431H12.0402V44.1857V44.0925V43.989V43.8856V43.7821V43.689V43.5856V43.482V43.3786V43.2854V43.182V43.0786V42.9751V42.8819V42.7791H12.1431H12.2465H12.3495H12.4522H12.5551H12.6579H12.7614H12.8643H12.9671H13.07H13.1734H13.2763H13.3791H13.4819H13.5854H13.6884H13.7912H13.894H13.9974H14.1004H14.2032H14.306H14.4094H14.5124H14.6152H14.718H14.8215H14.9244H15.0273H15.1301H15.2335H15.3364H15.4393V42.8819V42.9853V43.0889V43.182V43.2854V43.3889V43.4923V43.5958V43.6993V43.7924V43.8959V43.9994V44.1028V44.2063V44.3097V44.4132V44.5063V44.6098V44.7133V44.8168V44.9202V45.0237V45.1271V45.2203V45.3237V45.4272V45.5307V45.6341V45.7375V45.8308V45.9342V46.0376V46.1411L15.3675 46.2031Z" fill="white"/>
<path d="M12.0547 22.5939H16.519V19.1407H12.0547V12.0911H16.6967V8.63794H8.26379V33.5598H16.7673V30.1065H12.0547V22.5939Z" fill="white"/>
<path d="M44.0307 23.342V28.9673C44.0307 29.9643 43.5699 30.4268 42.6137 30.4268H41.9047C40.9128 30.4268 40.452 29.9643 40.452 28.9673V13.2304C40.452 12.2335 40.9128 11.771 41.9047 11.771H42.5425C43.4992 11.771 43.96 12.2335 43.96 13.2304V18.1084H47.6799V13.0168C47.6799 9.91964 46.1917 8.42422 43.1098 8.42422H41.2669C38.1849 8.42422 36.6609 9.95495 36.6609 13.0527V29.145C36.6609 32.2428 38.1849 33.7734 41.2669 33.7734H43.145C46.2278 33.7734 47.751 32.2428 47.751 29.145V23.342H44.0307Z" fill="white"/>
<path d="M30.8658 33.5598H34.6574V8.63782H30.8658V33.5598Z" fill="white"/>
<path d="M25.3645 19.7103C25.3645 20.7073 24.9044 21.1704 23.9477 21.1704H22.3885V11.9846H23.9477C24.9044 11.9846 25.3645 12.4472 25.3645 13.444V19.7103ZM24.5497 8.63783H18.5974V33.5598H22.3885V24.5164H24.5497C27.6323 24.5164 29.1556 22.9858 29.1556 19.8887V13.2663C29.1556 10.1686 27.6323 8.63783 24.5497 8.63783Z" fill="white"/>
<path fill-rule="evenodd" clip-rule="evenodd" d="M17.2073 56.094H38.9097L27.8325 59.7471L17.2073 56.094Z" fill="white"/>
</g>
</g>
<defs>
<clipPath id="clip0_106_32">
<rect width="56.0148" height="65" fill="white"/>
</clipPath>
</defs>
</svg>
