<svg width="54" height="65" viewBox="0 0 54 65" fill="none" xmlns="http://www.w3.org/2000/svg">
<g opacity="0.7" clip-path="url(#clip0_106_65)">
<path d="M5.48776 64.793C5.0207 64.9355 4.53451 65.0053 4.04622 65C3.42721 65 2.86896 64.9046 2.3729 64.7124C1.8972 64.5349 1.46323 64.2611 1.09813 63.9083C0.741681 63.5568 0.464386 63.1332 0.284792 62.666C0.0906444 62.1572 -0.0059635 61.6164 1.75071e-05 61.0718C1.75071e-05 60.4853 0.0925869 59.9497 0.276313 59.4677C0.448996 59.0031 0.716887 58.5798 1.0628 58.2248C1.41392 57.872 1.83655 57.5985 2.30224 57.4227C2.82355 57.2268 3.37701 57.1304 3.93387 57.1387C4.23772 57.1387 4.52037 57.1613 4.78183 57.2058C5.04329 57.2496 5.28496 57.3139 5.50613 57.3987C5.93179 57.5582 6.32213 57.7995 6.65512 58.1089L6.35904 58.5823C6.31864 58.6492 6.25415 58.698 6.17885 58.7187C6.10677 58.7385 6.0248 58.7215 5.93506 58.6678C5.83552 58.609 5.73727 58.548 5.64039 58.4848C5.51137 58.4045 5.37567 58.3355 5.23478 58.2785C4.81155 58.1086 4.35793 58.0276 3.90207 58.0403C3.50018 58.0345 3.10092 58.1062 2.72622 58.2516C2.38689 58.3859 2.08106 58.5929 1.83021 58.8579C1.57588 59.1332 1.38188 59.4586 1.26066 59.8133C1.12356 60.2187 1.05665 60.6446 1.0628 61.0725C1.0628 61.5544 1.13205 61.9862 1.26914 62.3678C1.40693 62.748 1.60408 63.073 1.85989 63.3387C2.1211 63.6087 2.43928 63.8171 2.79123 63.9485C3.18435 64.0929 3.60064 64.1638 4.01937 64.1577C4.48641 64.1589 4.94936 64.0706 5.38318 63.8977C5.51461 63.8411 5.64958 63.7775 5.78525 63.7069V62.0109H4.58892C4.52869 62.0137 4.46981 61.9926 4.42498 61.9523C4.40496 61.9336 4.38908 61.9109 4.37837 61.8857C4.36766 61.8605 4.36235 61.8334 4.36279 61.806V61.2167H6.72437V64.1683C6.34855 64.4418 5.93095 64.6528 5.48776 64.793Z" fill="white"/>
<path d="M14.7793 61.0711C14.7793 60.5991 14.7157 60.1751 14.5864 59.7992C14.4715 59.4473 14.285 59.123 14.0387 58.8466C13.8005 58.5859 13.5072 58.3814 13.1802 58.2481C12.8223 58.1042 12.4394 58.0331 12.0538 58.039C11.6418 58.039 11.268 58.1082 10.9316 58.2481C10.6041 58.3821 10.31 58.5864 10.0702 58.8466C9.82276 59.1226 9.63531 59.447 9.51977 59.7992C9.38602 60.2097 9.32084 60.6394 9.32686 61.0711C9.32686 61.5432 9.39187 61.9664 9.51977 62.3403C9.64909 62.7148 9.83282 63.0306 10.0702 63.29C10.3097 63.55 10.6039 63.7534 10.9316 63.8857C11.2886 64.0273 11.6698 64.0977 12.0538 64.0927C12.4391 64.0978 12.8218 64.0275 13.1802 63.8857C13.5074 63.754 13.8008 63.5504 14.0387 63.29C14.2845 63.0143 14.4709 62.691 14.5864 62.3403C14.715 61.9657 14.7793 61.5432 14.7793 61.0711ZM15.8463 61.0711C15.8463 61.6471 15.7566 62.1756 15.5735 62.6568C15.4027 63.1187 15.14 63.5411 14.8012 63.8984C14.4629 64.2497 14.0539 64.5252 13.6013 64.7068C13.1092 64.9027 12.5834 65.0001 12.0538 64.9937C11.4885 64.9937 10.9726 64.8983 10.5077 64.7068C10.0561 64.5247 9.64819 64.2492 9.31061 63.8984C8.97181 63.5411 8.70906 63.1187 8.53826 62.6568C8.3516 62.1492 8.25893 61.6119 8.26479 61.0711C8.26479 60.4945 8.35665 59.9667 8.53826 59.4847C8.70962 59.0221 8.97228 58.5987 9.31061 58.2396C9.64826 57.8879 10.0561 57.611 10.5077 57.427C10.9987 57.229 11.5243 57.1305 12.0538 57.1373C12.6177 57.1373 13.1342 57.2334 13.6013 57.427C14.054 57.6105 14.4628 57.8874 14.8012 58.2396C15.1333 58.5894 15.3905 59.0042 15.5735 59.4847C15.7566 59.9667 15.847 60.4952 15.847 61.0711" fill="white"/>
<path d="M22.7671 64.793C22.3 64.9355 21.8138 65.0053 21.3255 65C20.7065 65 20.149 64.9046 19.6522 64.7124C19.1765 64.5349 18.7426 64.2611 18.3775 63.9083C18.0213 63.5567 17.7442 63.1332 17.5648 62.666C17.3707 62.1572 17.2741 61.6164 17.28 61.0718C17.28 60.4853 17.3719 59.9497 17.5556 59.4678C17.7285 59.0031 17.9967 58.5797 18.3428 58.2248C18.6937 57.8721 19.1161 57.5986 19.5816 57.4228C20.1031 57.2267 20.6568 57.1303 21.2139 57.1387C21.5177 57.1387 21.8004 57.1613 22.0619 57.2058C22.3226 57.2496 22.5643 57.3139 22.7862 57.3987C23.2116 57.5583 23.6017 57.7996 23.9344 58.1089L23.6384 58.5823C23.5981 58.649 23.5339 58.6978 23.4589 58.7187C23.3861 58.7385 23.3041 58.7215 23.2144 58.6678C23.1148 58.609 23.0166 58.548 22.9197 58.4848C22.7909 58.4045 22.6555 58.3355 22.5148 58.2785C22.0914 58.1085 21.6375 58.0275 21.1814 58.0404C20.7795 58.0345 20.3802 58.1062 20.0055 58.2516C19.6662 58.3859 19.3604 58.5929 19.1095 58.8579C18.8555 59.1333 18.6617 59.4587 18.5407 59.8133C18.4037 60.2185 18.3368 60.6441 18.3428 61.0718C18.3428 61.5545 18.4114 61.9862 18.5492 62.3678C18.6863 62.748 18.8834 63.073 19.1399 63.3387C19.4009 63.6087 19.7189 63.817 20.0706 63.9485C20.4639 64.093 20.8804 64.1639 21.2994 64.1577C21.7662 64.1586 22.2288 64.0703 22.6625 63.8977C22.7946 63.8411 22.9289 63.7775 23.0653 63.7069V62.0109H21.8682C21.808 62.0137 21.7491 61.9926 21.7043 61.9523C21.6844 61.9336 21.6687 61.9109 21.6581 61.8857C21.6475 61.8605 21.6423 61.8333 21.6428 61.806V61.2167H24.0044V64.1683C23.6284 64.4419 23.2105 64.6529 22.7671 64.793Z" fill="white"/>
<path d="M25.8148 64.3216C25.8145 64.19 25.8524 64.0613 25.9239 63.9509C25.9954 63.8405 26.0975 63.7532 26.2176 63.6997C26.3005 63.6637 26.3901 63.6454 26.4805 63.646C26.6129 63.6481 26.742 63.6881 26.8524 63.7614C26.9627 63.8347 27.0497 63.9381 27.103 64.0594C27.1391 64.1427 27.1577 64.2325 27.1577 64.3233C27.1577 64.4141 27.1391 64.5039 27.103 64.5872C27.0683 64.6663 27.0192 64.7382 26.9582 64.7992C26.8304 64.9237 26.6588 64.9929 26.4805 64.9922C26.3903 64.9928 26.301 64.9755 26.2176 64.9413C26.1379 64.9093 26.0658 64.8612 26.0056 64.7999C25.9435 64.737 25.8947 64.6622 25.8619 64.58C25.8291 64.4979 25.8131 64.41 25.8148 64.3216Z" fill="white"/>
<path d="M34.31 63.3245C34.3386 63.3246 34.3669 63.3309 34.3928 63.3431C34.4187 63.3553 34.4416 63.3731 34.4598 63.3952L34.8732 63.8404C34.5582 64.2051 34.1672 64.4964 33.7277 64.694C33.2783 64.8975 32.7356 64.9993 32.0982 64.9993C31.547 64.9993 31.0467 64.9039 30.5959 64.7117C30.1581 64.5294 29.7648 64.2549 29.4427 63.9068C29.1152 63.5467 28.8634 63.1245 28.7021 62.6653C28.5221 62.1533 28.4332 61.6137 28.4393 61.0711C28.4393 60.4909 28.5304 59.9602 28.712 59.4769C28.882 59.0143 29.144 58.591 29.4823 58.2325C29.8171 57.8824 30.2221 57.6069 30.6708 57.4241C31.133 57.2333 31.6424 57.1379 32.2014 57.1379C32.7476 57.1379 33.231 57.2249 33.6493 57.4001C34.0581 57.569 34.4328 57.8109 34.7552 58.1138L34.4118 58.5915C34.3906 58.6266 34.3622 58.6567 34.3284 58.6798C34.2873 58.7051 34.2395 58.7174 34.1913 58.7152C34.127 58.7152 34.0485 58.6798 33.9553 58.6099C33.8383 58.5251 33.7163 58.4474 33.5899 58.3774C33.4116 58.2792 33.223 58.201 33.0275 58.1442C32.757 58.0678 32.4767 58.0323 32.1957 58.0389C31.8224 58.0337 31.4518 58.1039 31.1061 58.2452C30.7817 58.3793 30.4911 58.5837 30.2553 58.8438C30.008 59.1217 29.8191 59.4466 29.6999 59.7991C29.5621 60.2088 29.4947 60.6389 29.5006 61.0711C29.5006 61.5495 29.5706 61.9777 29.7084 62.3536C29.8455 62.7296 30.0334 63.0468 30.2716 63.3062C30.509 63.5648 30.7895 63.7627 31.1139 63.8983C31.4462 64.0361 31.8028 64.1058 32.1625 64.1033C32.3922 64.1033 32.5985 64.0898 32.7837 64.0623C32.9674 64.0354 33.137 63.9937 33.2924 63.9365C33.4479 63.88 33.5935 63.8065 33.7277 63.7196C33.8613 63.6319 33.9941 63.5266 34.127 63.4051C34.1758 63.3564 34.2411 63.3277 34.31 63.3245Z" fill="white"/>
<path d="M42.3241 61.0711C42.3241 60.5991 42.2605 60.1751 42.1312 59.7992C42.0163 59.4473 41.8298 59.123 41.5835 58.8466C41.3453 58.5859 41.052 58.3814 40.725 58.2481C40.3671 58.1042 39.9842 58.0331 39.5986 58.039C39.1866 58.039 38.8128 58.1082 38.4764 58.2481C38.1487 58.382 37.8543 58.5863 37.6143 58.8466C37.3671 59.1227 37.1799 59.447 37.0646 59.7992C36.9308 60.2097 36.8656 60.6394 36.8717 61.0711C36.8717 61.5432 36.9367 61.9664 37.0646 62.3403C37.1939 62.7148 37.3776 63.0306 37.615 63.29C37.8545 63.55 38.1487 63.7534 38.4764 63.8857C38.8334 64.0273 39.2146 64.0977 39.5986 64.0927C39.9839 64.0978 40.3666 64.0275 40.725 63.8857C41.0522 63.754 41.3456 63.5504 41.5835 63.29C41.8293 63.0143 42.0157 62.691 42.1312 62.3403C42.2598 61.9657 42.3241 61.5432 42.3241 61.0711ZM43.3911 61.0711C43.3911 61.6471 43.3014 62.1756 43.1183 62.6568C42.9475 63.1187 42.6848 63.5411 42.346 63.8984C42.0077 64.2497 41.5987 64.5252 41.1461 64.7068C40.654 64.9027 40.1282 65.0001 39.5986 64.9937C39.0333 64.9937 38.5174 64.8983 38.0525 64.7068C37.6009 64.5247 37.193 64.2492 36.8554 63.8984C36.5166 63.5411 36.2539 63.1187 36.0831 62.6568C35.8964 62.1492 35.8037 61.6119 35.8096 61.0711C35.8096 60.4945 35.9015 59.9667 36.0831 59.4847C36.2544 59.0221 36.5171 58.5987 36.8554 58.2396C37.1931 57.8879 37.6009 57.611 38.0525 57.427C38.5435 57.229 39.0691 57.1305 39.5986 57.1373C40.1625 57.1373 40.679 57.2334 41.1461 57.427C41.5988 57.6105 42.0076 57.8874 42.346 58.2396C42.6781 58.5894 42.9353 59.0042 43.1183 59.4847C43.3014 59.9667 43.3911 60.4952 43.3911 61.0711Z" fill="white"/>
<path d="M49.1748 62.4052L49.2936 62.6857C49.3291 62.5895 49.3667 62.4941 49.4066 62.3996C49.4448 62.3056 49.4886 62.2137 49.5338 62.1289L52.1434 57.4015C52.1858 57.3181 52.2332 57.2687 52.2848 57.2503C52.3555 57.2301 52.4289 57.2213 52.5024 57.2242H53.2705V64.9131H52.3575V59.2628C52.357 59.0944 52.3641 58.926 52.3787 58.7583L49.743 63.5669C49.6617 63.7273 49.5366 63.8079 49.3685 63.8079H49.218C49.0505 63.8079 48.9247 63.7273 48.8434 63.5676L46.149 58.742C46.1675 58.915 46.1783 59.0888 46.1815 59.2628V64.9131H45.2686V57.2249H46.036C46.1085 57.2217 46.181 57.2303 46.2508 57.2503C46.3002 57.2687 46.349 57.3181 46.3949 57.4015L49.0519 62.1339C49.0943 62.2194 49.136 62.3105 49.1756 62.4052" fill="white"/>
<path fill-rule="evenodd" clip-rule="evenodd" d="M15.8725 32.5427H9.67527C9.55981 32.5428 9.44551 32.5657 9.33892 32.6101C9.23233 32.6545 9.13555 32.7195 9.05414 32.8013C8.97273 32.8832 8.90828 32.9803 8.86451 33.0872C8.82073 33.194 8.79848 33.3084 8.79904 33.4239C8.79904 33.4239 8.80116 33.4239 8.80116 33.4296H8.79904V37.851H8.80116L8.79904 37.8545C8.79904 38.3393 9.18911 38.7378 9.67527 38.7378H15.8725V41.6873H8.13975V41.6803C7.83937 41.6806 7.54187 41.6218 7.26424 41.5071C6.98661 41.3925 6.73431 41.2242 6.52175 41.012C6.30918 40.7997 6.14053 40.5477 6.02543 40.2702C5.91034 39.9928 5.85104 39.6954 5.85095 39.395V31.8764C5.85282 31.271 6.09493 30.691 6.52408 30.264C6.95323 29.837 7.53434 29.5978 8.13975 29.5989H15.8725V32.5427Z" fill="white"/>
<path fill-rule="evenodd" clip-rule="evenodd" d="M18.1097 24.3317C18.11 24.6364 18.0503 24.9382 17.9339 25.2198C17.8175 25.5015 17.6467 25.7574 17.4313 25.9729C17.2159 26.1884 16.9601 26.3594 16.6786 26.476C16.397 26.5925 16.0952 26.6524 15.7905 26.6523H5.84387V23.6632H14.2295C14.7228 23.6632 15.1185 23.2597 15.1185 22.7686V12.887C15.1185 12.3944 14.7228 11.9952 14.2295 11.9952H9.72331C9.60636 11.9953 9.49057 12.0184 9.38258 12.0633C9.27458 12.1082 9.1765 12.1739 9.09393 12.2568C9.01137 12.3396 8.94594 12.4379 8.9014 12.546C8.85686 12.6542 8.83408 12.77 8.83436 12.887V17.384C8.8338 17.5012 8.85637 17.6173 8.90078 17.7257C8.94519 17.8341 9.01055 17.9327 9.09314 18.0158C9.17572 18.0989 9.2739 18.1649 9.38203 18.21C9.49017 18.2551 9.60615 18.2784 9.72331 18.2786H13.3236V21.2677H8.16305C7.85848 21.2681 7.55683 21.2083 7.27537 21.092C6.99391 20.9756 6.73818 20.8048 6.52281 20.5895C6.30745 20.3741 6.13669 20.1184 6.0203 19.8369C5.90392 19.5554 5.84421 19.2538 5.84458 18.9492V11.3232C5.8443 11.0186 5.90407 10.7169 6.02047 10.4354C6.13686 10.1539 6.30761 9.89811 6.52294 9.68265C6.73826 9.4672 6.99395 9.2963 7.27538 9.17973C7.5568 9.06316 7.85844 9.0032 8.16305 9.0033H15.7905C16.4056 9.00348 16.9955 9.24798 17.4304 9.68303C17.8654 10.1181 18.1097 10.708 18.1097 11.3232V24.3317Z" fill="white"/>
<path fill-rule="evenodd" clip-rule="evenodd" d="M47.4167 41.681H44.4687V32.5442H42.3982C42.2827 32.5441 42.1683 32.5668 42.0616 32.6111C41.9549 32.6553 41.858 32.7202 41.7764 32.802C41.6949 32.8838 41.6303 32.9809 41.5864 33.0878C41.5425 33.1946 41.5201 33.3091 41.5206 33.4246V41.681H38.5739V32.5442H36.5013C36.3859 32.5443 36.2715 32.5671 36.1649 32.6114C36.0583 32.6557 35.9615 32.7207 35.8799 32.8024C35.7984 32.8842 35.7338 32.9813 35.6899 33.088C35.6459 33.1948 35.6234 33.3092 35.6237 33.4246V41.6888H32.677V31.8778C32.6781 31.2726 32.9196 30.6926 33.3483 30.2654C33.7769 29.8381 34.3578 29.5987 34.963 29.5996H47.416L47.4167 41.681Z" fill="white"/>
<path fill-rule="evenodd" clip-rule="evenodd" d="M47.4238 24.3317C47.4242 24.6363 47.3645 24.9381 47.2481 25.2197C47.1317 25.5012 46.961 25.7571 46.7457 25.9727C46.5303 26.1882 46.2746 26.3591 45.9932 26.4758C45.7117 26.5924 45.41 26.6524 45.1053 26.6523H35.1587V23.6632H43.5444C44.039 23.6632 44.4375 23.2597 44.4375 22.7686V12.887C44.4376 12.7697 44.4146 12.6536 44.3697 12.5453C44.3248 12.4369 44.259 12.3385 44.1761 12.2557C44.0931 12.1728 43.9946 12.1072 43.8862 12.0625C43.7778 12.0178 43.6616 11.9949 43.5444 11.9952H39.0388C38.8031 11.9961 38.5773 12.0905 38.411 12.2577C38.2448 12.4249 38.1516 12.6512 38.152 12.887V17.384C38.152 17.8779 38.5505 18.2786 39.0388 18.2786H42.637V21.2677H37.4786C37.174 21.268 36.8723 21.2082 36.5908 21.0918C36.3093 20.9754 36.0535 20.8047 35.838 20.5893C35.6226 20.374 35.4517 20.1183 35.3351 19.8369C35.2185 19.5555 35.1586 19.2538 35.1587 18.9492V11.3232C35.1585 11.0184 35.2184 10.7166 35.335 10.435C35.4515 10.1534 35.6225 9.89758 35.838 9.68211C36.0535 9.46664 36.3094 9.29578 36.5911 9.17931C36.8727 9.06283 37.1745 9.00302 37.4793 9.0033H45.1046C45.7196 9.00386 46.3092 9.2485 46.7439 9.68348C47.1786 10.1185 47.4229 10.7082 47.4231 11.3232L47.4238 24.3317Z" fill="white"/>
<path fill-rule="evenodd" clip-rule="evenodd" d="M29.7706 12.8947V17.3839C29.7722 17.5008 29.7506 17.6169 29.707 17.7253C29.6634 17.8338 29.5987 17.9325 29.5167 18.0158C29.4347 18.0991 29.3369 18.1653 29.2291 18.2105C29.1213 18.2557 29.0056 18.2791 28.8887 18.2792H24.3839C24.2666 18.2792 24.1505 18.2559 24.0422 18.2108C23.9339 18.1657 23.8355 18.0997 23.7528 18.0165C23.6701 17.9333 23.6046 17.8346 23.5601 17.7261C23.5156 17.6175 23.493 17.5013 23.4936 17.3839V12.8869C23.4936 12.3944 23.8893 11.9958 24.3839 11.9958H28.8887C29.0053 11.9958 29.1208 12.0189 29.2284 12.0638C29.336 12.1087 29.4336 12.1745 29.5156 12.2574C29.5976 12.3402 29.6624 12.4385 29.7061 12.5466C29.7499 12.6547 29.7718 12.7703 29.7706 12.8869V12.8947ZM30.449 9.00464H22.8208C22.5164 9.00473 22.215 9.0648 21.9338 9.18141C21.6526 9.29802 21.3971 9.46888 21.1819 9.68425C20.9667 9.89961 20.7961 10.1553 20.6797 10.4366C20.5634 10.7179 20.5036 11.0194 20.5038 11.3238V18.9498C20.5033 19.2544 20.5629 19.556 20.6792 19.8374C20.7954 20.1189 20.966 20.3746 21.1813 20.59C21.3965 20.8055 21.6521 20.9763 21.9334 21.0928C22.2148 21.2093 22.5163 21.2692 22.8208 21.269H30.449C31.0638 21.2685 31.6532 21.0239 32.0878 20.5891C32.5224 20.1542 32.7666 19.5646 32.7668 18.9498V11.3238C32.7664 10.7091 32.5221 10.1196 32.0876 9.68482C31.653 9.25001 31.0637 9.00539 30.449 9.00464Z" fill="white"/>
<path fill-rule="evenodd" clip-rule="evenodd" d="M27.3708 33.4295V37.851C27.3714 37.9664 27.3492 38.0808 27.3056 38.1877C27.2619 38.2945 27.1976 38.3918 27.1164 38.4738C27.0351 38.5558 26.9385 38.621 26.8321 38.6657C26.7257 38.7104 26.6115 38.7337 26.496 38.7343C26.4918 38.7343 26.4904 38.7293 26.4861 38.7293V38.7343H22.0654V38.7293C22.0654 38.7293 22.0605 38.7343 22.0555 38.7343C21.94 38.7339 21.8256 38.7107 21.719 38.6661C21.6124 38.6215 21.5156 38.5563 21.4343 38.4743C21.3529 38.3922 21.2885 38.295 21.2447 38.188C21.201 38.081 21.1787 37.9665 21.1793 37.851V33.4239C21.1793 32.9377 21.5694 32.5427 22.0555 32.5427H26.496C26.6114 32.5429 26.7256 32.5658 26.8321 32.6103C26.9385 32.6547 27.0352 32.7197 27.1165 32.8016C27.1977 32.8835 27.262 32.9806 27.3057 33.0874C27.3494 33.1942 27.3715 33.3085 27.3708 33.4239V33.4295ZM28.033 29.5989H20.5179C19.9127 29.5977 19.3318 29.837 18.903 30.2641C18.4741 30.6912 18.2325 31.2711 18.2312 31.8763V39.395C18.2312 39.6951 18.2904 39.9924 18.4053 40.2697C18.5202 40.547 18.6887 40.799 18.9011 41.0111C19.1134 41.2233 19.3655 41.3915 19.643 41.5062C19.9204 41.6209 20.2177 41.6798 20.5179 41.6795H28.033C28.6387 41.6793 29.2196 41.4386 29.6479 41.0101C30.0762 40.5817 30.3168 40.0007 30.3168 39.395V31.8763C30.3153 31.2716 30.074 30.6922 29.6459 30.2651C29.2178 29.838 28.6377 29.5988 28.033 29.5989Z" fill="white"/>
<path d="M52.1378 46.8161C52.1378 47.5758 51.8318 48.2577 51.3343 48.7558C51.0801 49.0107 50.7779 49.2128 50.4453 49.3504C50.1126 49.4881 49.756 49.5586 49.396 49.5579H3.87449C3.51434 49.5582 3.15764 49.4876 2.82483 49.3499C2.49202 49.2123 2.18962 49.0103 1.93495 48.7557C1.68028 48.501 1.47834 48.1986 1.34069 47.8658C1.20303 47.533 1.13237 47.1763 1.13274 46.8161V3.87379C1.13245 3.51361 1.20327 3.15692 1.34114 2.82418C1.47902 2.49144 1.68123 2.18919 1.93619 1.93478C2.19048 1.67991 2.49262 1.47779 2.82525 1.34003C3.15789 1.20227 3.51446 1.13159 3.87449 1.13204H49.396C49.7561 1.13167 50.1126 1.20239 50.4452 1.34014C50.7779 1.47789 51.08 1.67997 51.3343 1.93478C51.5895 2.18876 51.7918 2.49073 51.9297 2.82328C52.0676 3.15583 52.1383 3.51237 52.1378 3.87238V46.8161ZM52.1343 1.13416C51.7752 0.773919 51.3484 0.488256 50.8784 0.293612C50.4085 0.0989674 49.9047 -0.000815926 49.396 5.02473e-06H3.87449C3.36584 -0.000815926 2.86205 0.0989674 2.39211 0.293612C1.92218 0.488256 1.49538 0.773919 1.13627 1.13416C0.775631 1.49322 0.489571 1.92006 0.294561 2.39012C0.0995508 2.86018 -0.000556361 3.36418 2.32562e-06 3.87308V46.8154C2.32562e-06 47.8846 0.434584 48.8569 1.13627 49.5557C1.49545 49.916 1.92223 50.2017 2.39213 50.3966C2.86203 50.5915 3.36579 50.6916 3.87449 50.6913H49.396C49.9047 50.6916 50.4085 50.5915 50.8784 50.3966C51.3483 50.2017 51.7751 49.916 52.1343 49.5557C52.4948 49.1965 52.7808 48.7695 52.9758 48.2993C53.1708 47.8292 53.271 47.3251 53.2705 46.8161V3.87379C53.271 3.3648 53.1708 2.86074 52.9758 2.39058C52.7808 1.92043 52.4948 1.49344 52.1343 1.13416Z" fill="black"/>
</g>
<defs>
<clipPath id="clip0_106_65">
<rect width="53.2705" height="65" fill="white"/>
</clipPath>
</defs>
</svg>
