<svg width="195" height="65" viewBox="0 0 195 65" fill="none" xmlns="http://www.w3.org/2000/svg">
<g opacity="0.7">
<path d="M36.064 52.9968C23.0175 52.9924 14.3 43.7467 14.3 32.5365C14.3 21.3264 23.0374 11.9746 36.0441 12.0034H158.956C171.963 11.9746 180.7 21.3264 180.7 32.5365C180.7 43.7467 171.982 52.9924 158.936 52.9968H36.064ZM36.1038 17.0461C25.7753 17.0659 19.4355 23.9693 19.4355 32.51C19.4355 41.0486 25.7355 48.0093 36.1038 47.9718H158.896C169.264 48.0071 175.567 41.0486 175.567 32.51C175.567 23.9715 169.227 17.0682 158.898 17.0483L36.1038 17.0461ZM165.501 24.2543C166.44 24.2543 166.907 24.5725 166.907 25.2023C166.907 25.6354 166.637 25.9625 166.188 26.0752L166.924 27.5447H166.034L165.404 26.1967H165.013V27.5447H164.211V24.2543H165.501ZM165.428 22.9682C163.789 22.9682 162.458 24.2985 162.458 25.9382C162.458 27.5778 163.789 28.9081 165.428 28.9081C167.068 28.9081 168.398 27.5778 168.398 25.9382C168.398 24.2985 167.068 22.9682 165.428 22.9682ZM167.83 25.9404C167.83 27.2662 166.754 28.3424 165.428 28.3424C164.102 28.3424 163.026 27.2662 163.026 25.9404C163.026 24.6145 164.102 23.5384 165.428 23.5384C166.754 23.5384 167.83 24.6123 167.83 25.9404ZM165.013 25.715H165.404C165.861 25.715 166.082 25.5758 166.082 25.2487C166.082 24.9062 165.846 24.7581 165.364 24.7581H165.013V25.715ZM97.8889 33.7563C97.8801 32.6316 97.9044 31.8802 98.2734 31.2394C98.7264 30.4483 99.5595 30.0727 100.315 30.0682H100.313C101.069 30.0727 101.902 30.4483 102.355 31.2394C102.724 31.8824 102.739 32.6338 102.73 33.7585L97.8889 33.7563ZM102.711 37.6256C102.711 37.6256 102.715 37.6831 102.715 38.4035C102.715 40.7503 101.17 41.2717 100.313 41.2717C99.4556 41.2717 97.8845 40.7503 97.8845 38.4035C97.8845 37.7008 97.8889 35.754 97.8889 35.754C97.8889 35.754 108.821 35.7584 108.821 35.7517C108.821 31.7719 104.978 28.4749 100.258 28.4749C95.5377 28.4749 91.7126 31.7012 91.7126 35.681C91.7126 39.6608 95.5377 42.8848 100.258 42.8848C104.173 42.8848 107.482 40.6507 108.491 37.6212L102.711 37.6256ZM120.97 28.6893C123.14 28.6275 127.542 30.0483 127.511 35.1286C127.506 36.0302 127.509 42.1115 127.509 42.1115H121.743C121.743 42.1115 121.743 34.4856 121.743 33.6834C121.743 32.5653 120.674 31.3212 119.092 31.3212C117.512 31.3212 116.336 32.5653 116.336 33.6834C116.336 34.2314 116.343 42.1115 116.343 42.1115H110.582L110.586 29.2793L116.345 29.2749C116.345 29.2749 116.338 30.3069 116.345 30.6251C117.454 29.5666 119.054 28.7446 120.97 28.6893ZM73.8091 28.6893C75.979 28.6275 80.3809 30.0483 80.35 35.1286C80.3456 36.0302 80.3477 42.1115 80.3477 42.1115H74.5824C74.5824 42.1115 74.5824 34.4856 74.5824 33.6834C74.5824 32.5653 73.5129 31.3212 71.9307 31.3212C70.3507 31.3212 69.1751 32.5653 69.1751 33.6834C69.1751 34.2314 69.1817 42.1115 69.1817 42.1115H63.4209L63.4186 29.2793L69.1839 29.2749C69.1839 29.2749 69.1773 30.3069 69.1839 30.6251C70.2932 29.5666 71.891 28.7446 73.8091 28.6893ZM140.018 22.818H145.746V42.1159H140.009C140.009 42.1159 140.007 41.4927 140.007 41.3734C137.786 42.7678 135.28 42.7656 133.329 41.8551C132.805 41.6121 129.36 39.9591 129.36 35.4932C129.36 32.1056 132.556 28.4065 136.739 28.7733C138.115 28.8948 139.094 29.3965 140.022 29.918C140.018 26.948 140.018 22.818 140.018 22.818ZM140.06 35.6346C140.06 35.6346 140.06 34.0259 140.06 33.3409C140.06 31.3565 138.69 30.8505 137.788 30.8505C136.865 30.8505 135.512 31.3565 135.512 33.3409C135.512 33.9994 135.515 35.628 135.515 35.628C135.515 35.628 135.512 37.2279 135.512 37.9107C135.512 39.8928 136.865 40.4122 137.786 40.4122C138.69 40.4122 140.062 39.8928 140.062 37.9107C140.062 37.0864 140.06 35.6346 140.06 35.6346ZM158.448 35.5971C158.448 35.5971 158.445 37.5373 158.445 38.3151C158.445 40.3613 157.237 41.2055 156.074 41.2055C154.91 41.2055 153.697 40.3613 153.697 38.3151C153.697 37.5373 153.699 35.5484 153.699 35.5484C153.699 35.5484 153.703 33.6503 153.703 32.8724C153.703 30.835 154.919 29.9975 156.074 29.9975C157.232 29.9975 158.445 30.835 158.445 32.8724C158.445 33.6503 158.443 35.0888 158.45 35.6037L158.448 35.5971ZM156.116 28.4065C151.432 28.4065 147.635 31.6327 147.635 35.6125C147.635 39.5923 151.434 42.8186 156.116 42.8186C160.801 42.8186 164.597 39.5923 164.597 35.6125C164.597 31.6327 160.801 28.4065 156.116 28.4065ZM54.4073 26.758V22.8136H60.2234V26.758H54.4073ZM54.4205 42.1159V29.2815L60.2234 29.2838V42.1159L54.4205 42.1159ZM83.5342 42.1159L83.5365 29.3081H80.381V27.4033L83.5387 27.401L83.5343 24.8023H89.3416V27.3988H92.4839V29.308H89.3416L89.346 42.1158L83.5342 42.1159ZM30.8048 42.1159L30.807 22.818H36.8197L45.1373 36.2755L45.1329 22.818H51.0993V42.1159H45.1417L36.78 28.6584V42.1159H30.8048Z" fill="white"/>
</g>
</svg>
