<svg width="84" height="65" viewBox="0 0 84 65" fill="none" xmlns="http://www.w3.org/2000/svg">
<g opacity="0.7" clip-path="url(#clip0_106_30)">
<path fill-rule="evenodd" clip-rule="evenodd" d="M82.8098 49.5257C81.186 51.5743 77.2076 53.0358 77.2076 53.0358L47.6123 63.6662V55.8265L69.3924 48.0661C71.8641 47.1805 72.2436 45.9287 70.2346 45.2716C68.2293 44.6126 64.5984 44.8014 62.1248 45.6908L47.6123 50.8021V42.6659L48.4488 42.3827C48.4488 42.3827 52.6424 40.8986 58.5392 40.2453C64.436 39.5957 71.6564 40.334 77.3247 42.4828C83.7124 44.5012 84.4318 47.477 82.8098 49.5257ZM50.4295 36.1762V16.1276C50.4295 13.773 49.9952 11.6054 47.786 10.9917C46.0942 10.4498 45.0444 12.0208 45.0444 14.3734V64.5801L31.5043 60.2826V0.4198C37.2613 1.48851 45.6486 4.01489 50.1576 5.53488C61.6245 9.47173 65.5122 14.3716 65.5122 25.4117C65.5122 36.1725 58.8696 40.2509 50.4295 36.1762ZM6.6596 55.007C0.101951 53.1604 -0.989416 49.3123 1.99957 47.0956C4.76198 45.0488 9.45976 43.508 9.45976 43.508L28.874 36.6049V44.4748L14.9034 49.4747C12.4355 50.3602 12.056 51.614 14.0613 52.2711C16.0684 52.9282 19.7012 52.7412 22.1729 51.8538L28.874 49.4218V56.4628C28.4492 56.5384 27.9752 56.6139 27.5372 56.6875C20.8342 57.7827 13.6949 57.3257 6.6596 55.007ZM78.4972 58.1244C79.345 58.1244 80.14 58.453 80.7385 59.0591C81.3371 59.6557 81.6675 60.4526 81.6675 61.2985C81.6675 62.1481 81.3371 62.9412 80.7385 63.5378C80.14 64.1402 79.345 64.4687 78.4972 64.4687C77.6495 64.4687 76.8564 64.1402 76.256 63.5378C75.6574 62.9412 75.3289 62.1481 75.3289 61.2985C75.3289 59.55 76.7488 58.1244 78.4972 58.1244ZM75.8613 61.2985C75.8613 62.0027 76.1351 62.6655 76.6336 63.1602C77.1302 63.6625 77.7948 63.9344 78.4972 63.9344C79.953 63.9344 81.1331 62.7524 81.1331 61.2985C81.1331 60.5923 80.8612 59.9295 80.3609 59.4329C79.8643 58.9307 79.1996 58.6607 78.4972 58.6607C77.7948 58.6607 77.1302 58.9307 76.6336 59.4329C76.1351 59.9295 75.8613 60.5923 75.8613 61.2985ZM79.4545 59.5897C79.802 59.7426 79.9776 60.0372 79.9776 60.4563C79.9776 60.6716 79.9323 60.8528 79.8397 60.9945C79.7737 61.0964 79.6792 61.1795 79.5735 61.2513C79.6566 61.3003 79.7302 61.3589 79.785 61.4269C79.8605 61.525 79.9039 61.6818 79.9096 61.8951L79.9266 62.3464C79.9323 62.4672 79.9398 62.5598 79.9587 62.6164C79.9776 62.6995 80.0135 62.7524 80.0588 62.7694L80.106 62.792V62.843V62.9204V62.9978H80.0286H79.4678H79.4225L79.3998 62.9582C79.3809 62.9205 79.3677 62.877 79.3545 62.8204C79.345 62.7694 79.3356 62.6806 79.3299 62.5447L79.3016 61.9839C79.294 61.7894 79.228 61.6686 79.1033 61.6044C79.0259 61.5685 78.8975 61.5515 78.7238 61.5515H77.7627V62.9204V62.9979H77.6834H77.2265H77.1491V62.9204V59.5463V59.4688H77.2265H78.788C79.0561 59.4688 79.2808 59.5084 79.4545 59.5897ZM77.7627 61.0114H78.7408C78.9372 61.0114 79.0939 60.9756 79.2053 60.9019C79.3073 60.8283 79.3564 60.6942 79.3564 60.4998C79.3564 60.2883 79.2865 60.1504 79.1392 60.0768C79.058 60.0372 78.9447 60.0145 78.8012 60.0145H77.7627V61.0114Z" fill="white"/>
</g>
<defs>
<clipPath id="clip0_106_30">
<rect width="83.969" height="65" fill="white"/>
</clipPath>
</defs>
</svg>
