<svg width="71" height="65" viewBox="0 0 71 65" fill="none" xmlns="http://www.w3.org/2000/svg">
<g opacity="0.7" clip-path="url(#clip0_106_52)">
<path d="M70.1333 64.5421C69.8064 64.8691 69.4467 65.0326 68.989 65.0326C68.5312 65.0326 68.1715 64.8691 67.8446 64.5421C67.5176 64.2152 67.3868 63.8555 67.3868 63.3978C67.3868 62.94 67.5503 62.5804 67.8446 62.2534C68.1715 61.9264 68.5312 61.7957 68.989 61.7957C69.4467 61.7957 69.8064 61.9591 70.1333 62.2534C70.4603 62.5804 70.6238 62.94 70.6238 63.3978C70.6238 63.8228 70.4603 64.2152 70.1333 64.5421ZM68.0081 62.4169C67.7465 62.6784 67.6157 63.0054 67.6157 63.3978C67.6157 63.7901 67.7465 64.1171 68.0081 64.3787C68.2696 64.6402 68.5966 64.8037 68.989 64.8037C69.3813 64.8037 69.7083 64.6729 69.9698 64.3787C70.2314 64.1171 70.3622 63.7901 70.3622 63.3978C70.3622 63.0054 70.2314 62.6784 69.9698 62.4169C69.7083 62.1553 69.3813 62.0245 68.989 62.0245C68.6293 61.9918 68.3023 62.1226 68.0081 62.4169ZM68.989 62.4823C69.2178 62.4823 69.3813 62.515 69.4794 62.5477C69.6756 62.6131 69.741 62.7765 69.741 63.0054C69.741 63.1689 69.6756 63.267 69.5775 63.3651C69.5121 63.3978 69.414 63.4305 69.3159 63.4632C69.4467 63.4959 69.5448 63.5286 69.6102 63.6266C69.6756 63.7247 69.7083 63.8228 69.7083 63.8882V64.2806H69.414V64.0517C69.414 63.8555 69.3486 63.7247 69.2505 63.6593C69.1851 63.6266 69.0543 63.5939 68.8909 63.5939H68.662V64.2806H68.335V62.515H68.989V62.4823ZM69.3159 62.7765C69.2505 62.7438 69.1197 62.7111 68.9236 62.7111H68.662V63.3324H68.9563C69.087 63.3324 69.1851 63.3324 69.2505 63.2997C69.3813 63.267 69.4467 63.1689 69.4467 63.0381C69.4467 62.9073 69.3813 62.8419 69.3159 62.7765Z" fill="black"/>
<path d="M58.33 0H12.5226C5.62374 0 0 5.46026 0 12.1303V52.837C0 59.6051 5.42757 64.9346 12.3919 64.9346H58.2319C65.1962 64.9346 70.6237 59.6051 70.6237 52.837V12.1303C70.6237 5.32948 65.2289 0 58.33 0ZM69.2178 52.837C69.2178 58.8531 64.3788 63.5287 58.1992 63.5287H12.3919C6.21227 63.5614 1.40594 58.8531 1.40594 52.837V12.1303C1.40594 6.11418 6.27767 1.37324 12.5226 1.37324H58.3627C64.4769 1.37324 69.2505 6.08149 69.2505 12.1303V52.837H69.2178Z" fill="black"/>
<path d="M69.2178 52.8371C69.2178 58.8532 64.3787 63.5287 58.1991 63.5287H12.3918C6.21222 63.5614 1.40588 58.8532 1.40588 52.8371V12.1303C1.40588 6.11424 6.27761 1.37329 12.5226 1.37329H58.3626C64.4768 1.37329 69.2505 6.08154 69.2505 12.1303V52.8371H69.2178Z" fill="black"/>
<path d="M56.5644 39.9221H50.7118L49.6982 33.5464L45.9381 39.8568H40.0201L43.6167 43.6495L40.6741 50.0253L47.1479 46.1671L52.2158 50.0907L51.2676 43.6495" fill="black"/>
<path d="M60.6514 38.6468H51.7907L50.3848 29.8189L45.2188 38.5815H44.2379C43.6494 37.5679 43.4205 36.0965 43.4205 35.1811C43.4205 33.677 43.5186 32.2057 43.5186 30.2766C43.5186 27.7263 42.7666 26.3858 40.7721 25.8953V25.8299C44.9899 25.2414 46.919 22.4295 46.919 18.506C46.919 12.915 43.1916 11.7052 38.3199 11.7052H25.2087L19.6504 37.9929H26.6147L28.6418 28.4129H33.2847C35.7696 28.4129 36.7832 29.6227 36.7832 31.9441C36.7832 33.7097 36.587 35.1157 36.587 36.4562C36.587 36.9466 36.6851 38.1237 37.0448 38.5815L42.08 43.9109L37.7314 53.2293L47.0171 47.7037L53.9487 53.0332L52.6735 44.2379L60.6514 38.6468ZM35.3773 23.5085H29.8189L31.1594 17.1655H36.3254C38.1564 17.1655 40.0855 17.6559 40.0855 19.8792C40.0855 22.7238 37.8949 23.5085 35.3773 23.5085ZM47.1479 46.167L40.674 50.0251L43.6494 43.6821L40.0528 39.8893H45.9708L49.6982 33.5789L50.7118 39.9547H56.5971L51.3003 43.6494L52.2485 50.1232L47.1479 46.167Z" fill="white"/>
</g>
<defs>
<clipPath id="clip0_106_52">
<rect width="70.6237" height="65" fill="white"/>
</clipPath>
</defs>
</svg>
