<svg width="72" height="65" viewBox="0 0 72 65" fill="none" xmlns="http://www.w3.org/2000/svg">
<path d="M0 51.7025V59.634C0 62.8545 2.19972 64.9072 5.40344 64.9072C8.77334 64.9072 10.836 62.7425 10.836 59.4168V51.7025H7.98373V59.2719C7.98373 61.0853 7.06866 62.2098 5.43384 62.2098C3.64216 62.2098 2.85234 60.9166 2.85234 59.4168V51.7025H0ZM12.2228 51.8121V64.7778H16.7657C19.2819 64.7778 21.4199 63.4971 21.4199 60.9569C21.4199 58.3054 19.0951 57.7177 19.0951 57.7177C19.0951 57.7177 20.8165 57.2405 20.8165 54.972C20.8165 52.7051 18.6407 51.8121 16.7657 51.8121H12.2228ZM15.0964 54.2748H16.4755C17.4325 54.2748 18.0449 54.7779 18.0449 55.6533C18.0449 56.4364 17.5254 57.0273 16.548 57.0273H15.0965V54.2748H15.0964ZM15.0964 59.0555H16.6206C18.0538 59.0555 18.5508 59.7902 18.5508 60.6671C18.5508 61.6874 17.9079 62.2856 16.7657 62.2856H15.0965V59.0556L15.0964 59.0555ZM22.4995 51.8111H25.3664V64.7769H22.4995V51.8111ZM53.7811 64.7769H50.9142V51.8111H59.9139V54.4912H53.7811V57.461H59.3696V59.634H53.7811V64.7769ZM60.9664 51.8111V54.4912H64.6679V64.7769H67.5711V54.4912H71.2V51.8111H60.9664ZM28.6392 60.4656L26.3617 62.1275C26.3617 62.1275 27.1487 65 31.094 65C33.7213 65 35.6546 63.4698 35.6546 60.7797C35.6546 56.4444 29.5805 57.3641 29.5805 55.1346C29.5805 54.5479 30.1034 54.0296 31.0683 54.0296C32.6164 54.0296 33.2048 55.5452 33.2048 55.5452L35.4829 53.9496C35.4829 53.9496 34.5932 51.5825 31.1827 51.5825C28.3799 51.5825 26.891 53.377 26.891 55.2288C26.891 59.6468 32.7882 58.6879 32.7882 61.0065C32.7882 61.789 32.1704 62.3639 31.2082 62.3573C29.3019 62.3573 28.6392 60.4656 28.6392 60.4656ZM43.0575 51.5765C39.6814 51.5765 38.1766 53.4055 38.1766 53.4055L38.612 53.8401C38.612 53.8401 36.4278 55.3884 36.4278 58.7135C36.4278 62.5396 39.3846 64.9972 43.0734 64.9972C47.3595 64.9972 49.7914 61.8409 49.7914 58.2925C49.7914 54.5086 47.0149 51.5765 43.0575 51.5765ZM43.1187 54.2679C45.4078 54.2679 46.8928 56.014 46.8928 58.2812C46.8928 60.5248 45.4255 62.3194 43.1187 62.3194C40.8397 62.3194 39.3423 60.7311 39.3423 58.623C39.3423 56.7043 40.6442 55.8682 40.6442 55.8682L40.1725 55.3974C40.1725 55.3974 41.1763 54.2679 43.1187 54.2679ZM34.2839 0C19.5599 0 13.2045 13.0798 13.2045 13.0798L15.0752 14.4164C15.0752 14.4164 12.721 18.8844 12.7862 24.6153C12.7862 36.3143 22.1175 47.3348 35.854 47.3348C48.333 47.3348 58.6415 37.1979 58.6415 24.6441C58.6415 8.27108 45.9194 0 34.284 0H34.2839ZM34.4117 3.99118C45.9155 3.99118 54.8422 13.2429 54.8422 23.9985C54.8422 35.4001 46.2498 43.3292 36.2372 43.3292C28.8681 43.3292 22.2205 37.7287 22.2205 30.05C22.2205 25.615 24.5825 22.523 27.2293 20.8751L27.6166 21.2945C26.8923 21.8601 24.8269 25.1712 24.8269 28.4256C24.8269 34.4671 29.5741 38.6513 35.5552 38.6513C43.174 38.6513 48.2552 32.166 48.2552 24.6359C48.2552 15.8748 40.5063 8.43678 31.181 8.43678C26.0232 8.43678 21.6455 10.6505 19.13 12.6048L18.7386 12.2512C22.0295 7.18709 27.7286 3.99118 34.4117 3.99118ZM30.9791 12.3725C36.93 12.3725 42.7399 16.3015 44.1901 21.8785L43.6627 22.0779C41.0588 18.6463 36.7922 15.8023 31.7538 15.8023C22.4827 15.8023 17.6137 24.2101 18.3285 31.2323L17.7826 31.4319C17.7826 31.4319 16.7586 29.1769 16.7586 26.503C16.7586 18.7598 23.1301 12.3725 30.9791 12.3725ZM34.9123 22.0902C37.7297 22.0902 39.9829 24.3693 39.9829 27.0747C39.9829 29.3134 38.5427 30.6402 38.5427 30.6402L40.2486 31.8307C40.2486 31.8307 38.557 34.4812 35.1039 34.4812C31.8009 34.4812 28.8796 31.8205 28.8796 28.2426C28.8796 24.5558 32.0572 22.0902 34.9123 22.0902Z" fill="white"/>
</svg>
