<svg width="65" height="65" viewBox="0 0 65 65" fill="none" xmlns="http://www.w3.org/2000/svg">
<g opacity="0.7" clip-path="url(#clip0_106_24)">
<path d="M29.243 64.8663C24.2388 64.3871 19.1725 62.59 14.8203 59.7504C11.1732 57.3709 10.3496 56.3928 10.3496 54.4407C10.3496 50.5196 14.661 43.6519 22.0373 35.8228C26.2266 31.3764 32.062 26.1645 32.6931 26.3057C33.9197 26.58 43.7279 36.1472 47.3997 40.6509C53.2059 47.7727 55.8752 53.6039 54.5191 56.2037C53.4883 58.1799 47.0919 62.0424 42.3926 63.5263C38.5196 64.7493 33.433 65.2676 29.243 64.8663ZM5.42393 50.3639C2.39333 45.7145 0.862173 41.1373 0.122921 34.5171C-0.121181 32.3311 -0.0337076 31.0807 0.677215 26.5939C1.56328 21.0017 4.74795 14.5322 8.57463 10.5507C10.2044 8.85499 10.35 8.81368 12.3366 9.48293C14.7492 10.2956 17.3256 12.075 21.3212 15.688L23.6524 17.796L22.3794 19.3599C16.4699 26.6198 10.2316 36.9103 7.88061 43.2769C6.6025 46.738 6.08699 50.2122 6.63692 51.6587C7.00821 52.6352 6.66717 52.2712 5.42393 50.3639ZM58.6203 51.1547C58.9196 49.6931 58.541 47.009 57.6535 44.3018C55.7315 38.4388 49.3073 27.5317 43.4081 20.1159L41.5511 17.7815L43.5602 15.9367C46.1835 13.5279 48.0048 12.0856 49.97 10.8608C51.5208 9.89422 53.7368 9.03859 54.6894 9.03859C55.2767 9.03859 57.3442 11.1843 59.0133 13.5259C61.5984 17.1525 63.5001 21.5489 64.4636 26.1255C65.0861 29.0826 65.138 35.4124 64.5639 38.3622C64.0927 40.783 63.0979 43.9232 62.1273 46.0528C61.4001 47.6486 59.5915 50.7477 58.7989 51.7561C58.3914 52.2746 58.3911 52.2735 58.6203 51.1547ZM29.7788 7.93147C27.0569 6.54926 22.8579 5.06554 20.5384 4.66636C19.7252 4.52642 18.338 4.44838 17.4558 4.49293C15.542 4.58957 15.6275 4.48949 18.6976 3.03901C21.25 1.83311 23.3791 1.12399 26.2694 0.51712C29.5207 -0.165567 35.632 -0.173579 38.8315 0.50065C42.2873 1.22888 46.3566 2.74321 48.6496 4.15431L49.3311 4.57371L47.7675 4.49475C44.6604 4.33784 40.132 5.59314 35.2703 7.95913C33.8039 8.67277 32.5281 9.24274 32.4353 9.22572C32.3425 9.20871 31.147 8.62629 29.7788 7.93147Z" fill="white"/>
</g>
<defs>
<clipPath id="clip0_106_24">
<rect width="64.9643" height="65" fill="white"/>
</clipPath>
</defs>
</svg>
